<svg width="18" height="19" viewBox="0 0 18 19" fill="none" xmlns="http://www.w3.org/2000/svg">
<path fill-rule="evenodd" clip-rule="evenodd" d="M11 4.75C11 6.95914 9.20914 8.75 7 8.75C4.79086 8.75 3 6.95914 3 4.75C3 2.54086 4.79086 0.75 7 0.75C9.20914 0.75 11 2.54086 11 4.75ZM14 14.75C14 16.9591 10.866 18.75 7 18.75C3.13401 18.75 0 16.9591 0 14.75C0 12.5409 3.13401 10.75 7 10.75C10.866 10.75 14 12.5409 14 14.75ZM13.5303 5.21967C13.2374 4.92678 12.7626 4.92678 12.4697 5.21967C12.1768 5.51256 12.1768 5.98744 12.4697 6.28033L13.9393 7.75L12.4697 9.21967C12.1768 9.51256 12.1768 9.98744 12.4697 10.2803C12.7626 10.5732 13.2374 10.5732 13.5303 10.2803L15 8.81066L16.4697 10.2803C16.7626 10.5732 17.2374 10.5732 17.5303 10.2803C17.8232 9.98744 17.8232 9.51256 17.5303 9.21967L16.0607 7.75L17.5303 6.28033C17.8232 5.98744 17.8232 5.51256 17.5303 5.21967C17.2374 4.92678 16.7626 4.92678 16.4697 5.21967L15 6.68934L13.5303 5.21967Z" fill="#F44242"/>
</svg>
