<svg width="374" height="352" viewBox="0 0 374 352" fill="none" xmlns="http://www.w3.org/2000/svg">
<g clip-path="url(#clip0_20_5632)">
<path d="M232.892 117.463L212.984 128.486L223.983 148.437L243.891 137.414L232.892 117.463Z" fill="white" fill-opacity="0.4"/>
<path d="M223.864 149.163L212.364 128.291L233.191 116.766L244.691 137.639L223.864 149.163ZM213.642 128.675L224.247 147.883L243.413 137.254L232.808 118.046L213.642 128.675Z" fill="white" fill-opacity="0.1"/>
<path d="M221.907 97.4658L201.999 108.489L212.998 128.44L232.906 117.417L221.907 97.4658Z" fill="white" fill-opacity="0.4"/>
<path d="M212.875 129.187L201.375 108.314L222.202 96.7896L233.702 117.662L212.875 129.187ZM202.653 108.699L213.258 127.907L232.425 117.278L221.819 98.0701L202.653 108.699Z" fill="white" fill-opacity="0.1"/>
<path d="M255.033 157.505L235.125 168.527L246.124 188.479L266.032 177.456L255.033 157.505Z" fill="white" fill-opacity="0.35"/>
<path d="M245.969 189.116L234.469 168.243L255.296 156.719L266.796 177.591L245.969 189.116ZM235.747 168.627L246.352 187.835L265.519 177.207L254.913 157.999L235.747 168.627Z" fill="white" fill-opacity="0.1"/>
<path d="M199.939 57.4745L180.031 68.4974L191.03 88.4486L210.938 77.4256L199.939 57.4745Z" fill="white" fill-opacity="0.35"/>
<path d="M190.77 89.1064L179.27 68.2337L200.097 56.7089L211.597 77.5816L190.77 89.1064ZM180.675 68.7459L191.281 87.9539L210.447 77.3255L199.842 58.1175L180.675 68.7459Z" fill="white" fill-opacity="0.1"/>
<path d="M210.923 77.4722L191.015 88.4951L202.014 108.446L221.922 97.4233L210.923 77.4722Z" fill="white" fill-opacity="0.4"/>
<path d="M201.886 109.211L190.386 88.338L211.214 76.8132L222.714 97.6859L201.886 109.211ZM191.664 88.7222L202.269 107.93L221.436 97.3018L210.83 78.0938L191.664 88.7222Z" fill="white" fill-opacity="0.1"/>
<path d="M244.049 137.508L224.141 148.531L235.14 168.483L255.048 157.46L244.049 137.508Z" fill="white" fill-opacity="0.35"/>
<path d="M234.98 169.14L223.48 148.267L244.308 136.742L255.808 157.615L234.98 169.14ZM224.758 148.651L235.363 167.859L254.53 157.231L243.924 138.023L224.758 148.651Z" fill="white" fill-opacity="0.1"/>
<path d="M155.223 212.717L135.315 223.74L146.314 243.691L166.222 232.668L155.223 212.717Z" fill="white" fill-opacity="0.35"/>
<path d="M146.176 244.435L134.676 223.562L155.503 212.037L167.003 232.91L146.176 244.435ZM135.954 223.946L146.559 243.154L165.726 232.526L155.12 213.318L135.954 223.946Z" fill="white" fill-opacity="0.1"/>
<path d="M175.175 201.71L155.267 212.733L166.266 232.684L186.174 221.661L175.175 201.71Z" fill="white" fill-opacity="0.4"/>
<path d="M166.109 233.294L154.609 212.422L175.437 200.897L186.936 221.77L166.109 233.294ZM155.887 212.934L166.492 232.142L185.659 221.513L175.053 202.305L155.887 212.934Z" fill="white" fill-opacity="0.1"/>
<path d="M195.238 190.641L175.33 201.663L186.329 221.615L206.237 210.592L195.238 190.641Z" fill="white" fill-opacity="0.4"/>
<path d="M186.042 222.282L174.542 201.409L195.369 189.884L206.869 210.757L186.042 222.282ZM175.948 201.793L186.553 221.001L205.719 210.373L195.114 191.165L175.948 201.793Z" fill="white" fill-opacity="0.1"/>
<path d="M215.129 179.519L195.221 190.542L206.22 210.493L226.128 199.47L215.129 179.519Z" fill="white" fill-opacity="0.4"/>
<path d="M205.975 211.269L194.475 190.397L215.303 178.872L226.802 199.745L205.975 211.269ZM195.881 190.781L206.486 209.989L225.652 199.36L215.047 180.152L195.881 190.781Z" fill="white" fill-opacity="0.1"/>
<path d="M235.081 168.516L215.173 179.538L226.172 199.49L246.08 188.467L235.081 168.516Z" fill="white" fill-opacity="0.35"/>
<path d="M226.036 200.129L214.536 179.256L235.363 167.731L246.863 188.604L226.036 200.129ZM215.814 179.768L226.419 198.976L245.585 188.348L234.98 169.14L215.814 179.768Z" fill="white" fill-opacity="0.1"/>
<path d="M109.096 81.6864L89.188 92.7094L100.187 112.66L120.095 101.638L109.096 81.6864Z" fill="white" fill-opacity="0.4"/>
<path d="M100.049 113.308L88.5488 92.4357L109.376 80.9109L120.876 101.784L100.049 113.308ZM89.8266 92.9479L100.432 112.156L119.598 101.527L108.993 82.3195L89.8266 92.9479Z" fill="white" fill-opacity="0.1"/>
<path d="M102.205 163.802L82.2971 174.825L93.2962 194.776L113.204 183.754L102.205 163.802Z" fill="white" fill-opacity="0.4"/>
<path d="M93.1488 195.391L81.6489 174.518L102.476 162.993L113.976 183.866L93.1488 195.391ZM82.9267 175.03L93.5321 194.238L112.698 183.61L102.093 164.402L82.9267 175.03Z" fill="white" fill-opacity="0.1"/>
<path d="M113.302 183.734L93.3945 194.757L104.394 214.708L124.301 203.685L113.302 183.734Z" fill="white" fill-opacity="0.4"/>
<path d="M104.138 215.495L92.6377 194.622L113.465 183.098L124.965 203.97L104.138 215.495ZM94.0432 195.006L104.649 214.214L123.815 203.586L113.21 184.378L94.0432 195.006Z" fill="white" fill-opacity="0.1"/>
<path d="M91.2224 143.805L71.3145 154.828L82.3135 174.779L102.221 163.756L91.2224 143.805Z" fill="white" fill-opacity="0.4"/>
<path d="M82.1602 175.414L70.6604 154.542L91.4879 143.017L102.988 163.889L82.1602 175.414ZM71.9382 154.926L82.5436 174.134L101.71 163.505L91.1045 144.297L71.9382 154.926Z" fill="white" fill-opacity="0.1"/>
<path d="M168.891 48.5522L148.983 59.5751L159.982 79.5263L179.89 68.5033L168.891 48.5522Z" fill="white" fill-opacity="0.35"/>
<path d="M159.848 80.2707L148.348 59.398L169.175 47.8732L180.675 68.7459L159.848 80.2707ZM149.626 59.7821L160.231 78.9901L179.397 68.3617L168.792 49.1537L149.626 59.7821Z" fill="white" fill-opacity="0.1"/>
<path d="M135.27 223.726L115.362 234.749L126.361 254.7L146.269 243.677L135.27 223.726Z" fill="white" fill-opacity="0.35"/>
<path d="M126.243 255.448L114.743 234.575L135.57 223.05L147.07 243.923L126.243 255.448ZM116.021 234.959L126.626 254.167L145.792 243.539L135.187 224.331L116.021 234.959Z" fill="white" fill-opacity="0.1"/>
<path d="M124.287 203.729L104.379 214.752L115.378 234.703L135.286 223.68L124.287 203.729Z" fill="white" fill-opacity="0.35"/>
<path d="M115.254 235.471L103.754 214.599L124.582 203.074L136.081 223.946L115.254 235.471ZM105.032 214.983L115.637 234.191L134.804 223.562L124.198 204.354L105.032 214.983Z" fill="white" fill-opacity="0.1"/>
<path d="M80.238 123.81L60.3301 134.833L71.3291 154.784L91.237 143.761L80.238 123.81Z" fill="white" fill-opacity="0.35"/>
<path d="M71.1715 155.438L59.6716 134.565L80.4991 123.041L91.9989 143.913L71.1715 155.438ZM60.9494 134.949L71.5548 154.157L90.7212 143.529L80.1158 124.321L60.9494 134.949Z" fill="white" fill-opacity="0.1"/>
<path d="M129.048 70.6779L109.14 81.7008L120.139 101.652L140.047 90.629L129.048 70.6779Z" fill="white" fill-opacity="0.4"/>
<path d="M119.982 102.296L108.482 81.4231L129.309 69.8983L140.809 90.771L119.982 102.296ZM109.76 81.8073L120.365 101.015L139.531 90.3868L128.926 71.1788L109.76 81.8073Z" fill="white" fill-opacity="0.1"/>
<path d="M148.939 59.5589L129.031 70.5818L140.03 90.5329L159.938 79.51L148.939 59.5589Z" fill="white" fill-opacity="0.4"/>
<path d="M139.915 91.2833L128.415 70.4106L149.243 58.8858L160.742 79.7585L139.915 91.2833ZM129.693 70.7948L140.298 90.0028L159.465 79.3743L148.859 60.1663L129.693 70.7948Z" fill="white" fill-opacity="0.1"/>
<path d="M69.0795 103.765L49.1716 114.788L60.1707 134.739L80.0786 123.716L69.0795 103.765Z" fill="white" fill-opacity="0.35"/>
<path d="M60.055 135.462L48.5552 114.589L69.3826 103.064L80.8825 123.937L60.055 135.462ZM49.9607 114.973L60.5661 134.181L79.7325 123.553L69.1271 104.345L49.9607 114.973Z" fill="white" fill-opacity="0.1"/>
<path d="M89.1435 92.6956L69.2356 103.719L80.2346 123.67L100.143 112.647L89.1435 92.6956Z" fill="white" fill-opacity="0.35"/>
<path d="M79.9879 124.449L68.488 103.576L89.3155 92.0516L100.815 112.924L79.9879 124.449ZM69.8936 103.961L80.499 123.169L99.6654 112.54L89.06 93.3322L69.8936 103.961Z" fill="white" fill-opacity="0.1"/>
<path d="M144.238 192.723L124.33 203.746L135.329 223.697L155.237 212.674L144.238 192.723Z" fill="white" fill-opacity="0.35"/>
<path d="M135.187 224.331L123.687 203.458L144.515 191.933L156.015 212.806L135.187 224.331ZM124.965 203.97L135.57 223.178L154.737 212.55L144.131 193.342L124.965 203.97Z" fill="white" fill-opacity="0.1"/>
<path d="M140.032 90.674L120.125 101.697L131.124 121.648L151.031 110.625L140.032 90.674Z" fill="white" fill-opacity="0.4"/>
<path d="M130.971 122.272L119.471 101.399L140.298 89.8746L151.798 110.747L130.971 122.272ZM120.748 101.912L131.354 121.12L150.52 110.491L139.915 91.2832L120.748 101.912Z" fill="white" fill-opacity="0.1"/>
<path d="M131.065 121.676L111.157 132.699L122.156 152.65L142.064 141.627L131.065 121.676Z" fill="white" fill-opacity="0.35"/>
<path d="M122.026 153.389L110.526 132.516L131.354 120.992L142.854 141.864L122.026 153.389ZM111.804 132.901L122.41 152.109L141.576 141.48L130.971 122.272L111.804 132.901Z" fill="white" fill-opacity="0.1"/>
<path d="M142.16 141.611L122.252 152.634L133.251 172.585L153.159 161.562L142.16 141.611Z" fill="white" fill-opacity="0.35"/>
<path d="M133.015 173.365L121.515 152.493L142.343 140.968L153.842 161.841L133.015 173.365ZM122.921 152.877L133.526 172.085L152.692 161.456L142.087 142.248L122.921 152.877Z" fill="white" fill-opacity="0.1"/>
<path d="M151.017 110.668L131.109 121.691L142.108 141.642L162.016 130.619L151.017 110.668Z" fill="white" fill-opacity="0.35"/>
<path d="M141.959 142.248L130.459 121.376L151.287 109.851L162.787 130.724L141.959 142.248ZM131.737 121.888L142.343 141.096L161.509 130.468L150.904 111.26L131.737 121.888Z" fill="white" fill-opacity="0.1"/>
<path d="M164.191 181.713L144.283 192.736L155.282 212.687L175.19 201.664L164.191 181.713Z" fill="white" fill-opacity="0.4"/>
<path d="M155.12 213.318L143.62 192.445L164.448 180.921L175.948 201.793L155.12 213.318ZM144.898 192.829L155.504 212.037L174.67 201.409L164.064 182.201L144.898 192.829Z" fill="white" fill-opacity="0.1"/>
<path d="M171.08 99.6012L151.172 110.624L162.171 130.575L182.079 119.552L171.08 99.6012Z" fill="white" fill-opacity="0.35"/>
<path d="M161.892 131.236L150.392 110.363L171.22 98.8384L182.72 119.711L161.892 131.236ZM151.798 110.747L162.403 129.955L181.57 119.327L170.964 100.119L151.798 110.747Z" fill="white" fill-opacity="0.1"/>
<path d="M184.081 170.593L164.173 181.616L175.172 201.567L195.08 190.544L184.081 170.593Z" fill="white" fill-opacity="0.4"/>
<path d="M175.053 202.305L163.553 181.433L184.381 169.908L195.881 190.781L175.053 202.305ZM164.831 181.817L175.436 201.025L194.603 190.396L183.997 171.188L164.831 181.817Z" fill="white" fill-opacity="0.1"/>
<path d="M153.207 161.717L133.299 172.74L144.298 192.691L164.206 181.668L153.207 161.717Z" fill="white" fill-opacity="0.35"/>
<path d="M144.131 193.342L132.632 172.469L153.459 160.944L164.959 181.817L144.131 193.342ZM133.909 172.853L144.515 192.061L163.681 181.433L153.076 162.225L133.909 172.853Z" fill="white" fill-opacity="0.1"/>
<path d="M182.065 119.595L162.157 130.618L173.156 150.569L193.064 139.546L182.065 119.595Z" fill="white" fill-opacity="0.35"/>
<path d="M173.009 151.212L161.509 130.339L182.336 118.815L193.836 139.687L173.009 151.212ZM162.787 130.852L173.392 150.06L192.559 139.431L181.953 120.223L162.787 130.852Z" fill="white" fill-opacity="0.1"/>
<path d="M162.113 130.604L142.205 141.627L153.204 161.578L173.112 150.555L162.113 130.604Z" fill="white" fill-opacity="0.35"/>
<path d="M153.076 162.353L141.576 141.48L162.403 129.955L173.903 150.828L153.076 162.353ZM142.854 141.864L153.459 161.072L172.625 150.444L162.02 131.236L142.854 141.864Z" fill="white" fill-opacity="0.1"/>
<path d="M173.096 150.6L153.188 161.623L164.188 181.574L184.095 170.551L173.096 150.6Z" fill="white" fill-opacity="0.35"/>
<path d="M164.065 182.329L152.565 161.456L173.392 149.932L184.892 170.804L164.065 182.329ZM153.842 161.841L164.448 181.049L183.614 170.42L173.009 151.212L153.842 161.841Z" fill="white" fill-opacity="0.1"/>
<path d="M193.049 139.589L173.141 150.612L184.14 170.563L204.048 159.541L193.049 139.589Z" fill="white" fill-opacity="0.35"/>
<path d="M183.997 171.189L172.498 150.316L193.325 138.791L204.825 159.664L183.997 171.189ZM173.775 150.828L184.381 170.036L203.547 159.408L192.942 140.2L173.775 150.828Z" fill="white" fill-opacity="0.1"/>
<path d="M202.017 108.587L182.109 119.61L193.108 139.561L213.016 128.538L202.017 108.587Z" fill="white" fill-opacity="0.4"/>
<path d="M192.942 140.2L181.442 119.327L202.269 107.802L213.769 128.675L192.942 140.2ZM182.72 119.711L193.325 138.919L212.491 128.291L201.886 109.083L182.72 119.711Z" fill="white" fill-opacity="0.1"/>
<path d="M120.08 101.682L100.172 112.704L111.171 132.656L131.079 121.633L120.08 101.682Z" fill="white" fill-opacity="0.4"/>
<path d="M111.037 133.413L99.5376 112.54L120.365 101.015L131.865 121.888L111.037 133.413ZM100.815 112.924L111.421 132.132L130.587 121.504L119.982 102.296L100.815 112.924Z" fill="white" fill-opacity="0.1"/>
<path d="M146.256 243.719L126.348 254.742L137.347 274.693L157.255 263.67L146.256 243.719Z" fill="white" fill-opacity="0.35"/>
<path d="M137.232 275.424L125.732 254.551L146.559 243.026L158.059 263.899L137.232 275.424ZM127.009 254.935L137.615 274.143L156.781 263.515L146.176 244.307L127.009 254.935Z" fill="white" fill-opacity="0.1"/>
<path d="M100.128 112.691L80.2197 123.714L91.2188 143.665L111.127 132.642L100.128 112.691Z" fill="white" fill-opacity="0.35"/>
<path d="M91.1043 144.425L79.6045 123.553L100.432 112.028L111.932 132.901L91.1043 144.425ZM80.8823 123.937L91.4876 143.145L110.654 132.516L100.049 113.308L80.8823 123.937Z" fill="white" fill-opacity="0.1"/>
<path d="M159.985 79.6647L140.077 90.6876L151.076 110.639L170.984 99.6158L159.985 79.6647Z" fill="white" fill-opacity="0.4"/>
<path d="M150.904 111.26L139.404 90.3869L160.231 78.8621L171.731 99.7347L150.904 111.26ZM140.682 90.771L151.287 109.979L170.453 99.3506L159.848 80.1426L140.682 90.771Z" fill="white" fill-opacity="0.1"/>
<path d="M122.159 152.792L102.251 163.815L113.25 183.766L133.158 172.743L122.159 152.792Z" fill="white" fill-opacity="0.4"/>
<path d="M113.082 184.378L101.582 163.505L122.41 151.98L133.909 172.853L113.082 184.378ZM102.86 163.889L113.465 183.097L132.632 172.469L122.026 153.261L102.86 163.889Z" fill="white" fill-opacity="0.1"/>
<path d="M204.033 159.586L184.125 170.609L195.124 190.56L215.032 179.537L204.033 159.586Z" fill="white" fill-opacity="0.4"/>
<path d="M194.986 191.293L183.486 170.42L204.314 158.895L215.814 179.768L194.986 191.293ZM184.764 170.804L195.369 190.012L214.536 179.384L203.93 160.176L184.764 170.804Z" fill="white" fill-opacity="0.1"/>
<path d="M111.111 132.688L91.2031 143.71L102.202 163.662L122.11 152.639L111.111 132.688Z" fill="white" fill-opacity="0.4"/>
<path d="M102.093 164.402L90.5933 143.529L111.421 132.004L122.921 152.877L102.093 164.402ZM91.871 143.913L102.476 163.121L121.643 152.493L111.037 133.285L91.871 143.913Z" fill="white" fill-opacity="0.1"/>
<path d="M213.001 128.583L193.093 139.606L204.092 159.557L224 148.534L213.001 128.583Z" fill="white" fill-opacity="0.4"/>
<path d="M203.93 160.176L192.431 139.303L213.258 127.778L224.758 148.651L203.93 160.176ZM193.708 139.687L204.314 158.895L223.48 148.267L212.875 129.059L193.708 139.687Z" fill="white" fill-opacity="0.1"/>
<path d="M224.097 148.518L204.189 159.541L215.188 179.492L235.096 168.469L224.097 148.518Z" fill="white" fill-opacity="0.35"/>
<path d="M214.919 180.152L203.419 159.28L224.247 147.755L235.747 168.627L214.919 180.152ZM204.825 159.792L215.43 179L234.597 168.371L223.991 149.163L204.825 159.792Z" fill="white" fill-opacity="0.1"/>
<path d="M179.875 68.5441L159.967 79.567L170.966 99.5182L190.874 88.4952L179.875 68.5441Z" fill="white" fill-opacity="0.35"/>
<path d="M170.836 100.247L159.337 79.3743L180.164 67.8495L191.664 88.7222L170.836 100.247ZM160.742 79.7584L171.348 98.9664L190.514 88.338L179.909 69.13L160.742 79.7584Z" fill="white" fill-opacity="0.1"/>
<path d="M190.971 88.479L171.063 99.502L182.062 119.453L201.97 108.43L190.971 88.479Z" fill="white" fill-opacity="0.4"/>
<path d="M181.953 120.223L170.453 99.3506L191.281 87.8258L202.78 108.698L181.953 120.223ZM171.731 99.7348L182.336 118.943L201.503 108.314L190.897 89.1063L171.731 99.7348Z" fill="white" fill-opacity="0.1"/>
<path d="M133.254 172.727L113.346 183.75L124.345 203.701L144.253 192.678L133.254 172.727Z" fill="white" fill-opacity="0.4"/>
<path d="M124.071 204.354L112.571 183.482L133.398 171.957L144.898 192.829L124.071 204.354ZM113.976 183.866L124.582 203.074L143.748 192.445L133.143 173.237L113.976 183.866Z" fill="white" fill-opacity="0.1"/>
<path d="M188.843 37.542L168.935 48.5649L179.934 68.5161L199.842 57.4931L188.843 37.542Z" fill="white" fill-opacity="0.35"/>
<path d="M179.781 69.13L168.281 48.2573L189.108 36.7325L200.608 57.6052L179.781 69.13ZM169.559 48.7696L180.164 67.9776L199.331 57.3491L188.725 38.1411L169.559 48.7696Z" fill="white" fill-opacity="0.1"/>
<path d="M115.381 234.844L95.4731 245.867L106.472 265.818L126.38 254.795L115.381 234.844Z" fill="white" fill-opacity="0.35"/>
<path d="M106.31 266.46L94.8101 245.588L115.638 234.063L127.137 254.935L106.31 266.46ZM96.0878 245.972L106.693 265.18L125.86 254.551L115.254 235.343L96.0878 245.972Z" fill="white" fill-opacity="0.1"/>
<path d="M71.2692 154.814L51.3613 165.837L62.3604 185.788L82.2683 174.765L71.2692 154.814Z" fill="white" fill-opacity="0.4"/>
<path d="M62.2271 186.427L50.7273 165.554L71.5548 154.029L83.0546 174.902L62.2271 186.427ZM52.0051 166.066L62.6105 185.274L81.7768 174.646L71.1714 155.438L52.0051 166.066Z" fill="white" fill-opacity="0.1"/>
<path d="M93.2368 194.806L73.3289 205.829L84.3279 225.78L104.236 214.757L93.2368 194.806Z" fill="white" fill-opacity="0.4"/>
<path d="M84.2044 226.508L72.7046 205.635L93.5321 194.11L105.032 214.983L84.2044 226.508ZM73.9823 206.019L84.5877 225.227L103.754 214.599L93.1487 195.391L73.9823 206.019Z" fill="white" fill-opacity="0.1"/>
<path d="M82.2546 174.808L62.3467 185.831L73.3457 205.782L93.2536 194.759L82.2546 174.808Z" fill="white" fill-opacity="0.4"/>
<path d="M73.2159 206.531L61.7161 185.659L82.5435 174.134L94.0434 195.006L73.2159 206.531ZM62.9938 186.043L73.5992 205.251L92.7656 194.622L82.1602 175.414L62.9938 186.043Z" fill="white" fill-opacity="0.1"/>
<path d="M104.333 214.74L84.4248 225.763L95.4239 245.714L115.332 234.691L104.333 214.74Z" fill="white" fill-opacity="0.35"/>
<path d="M95.1932 246.484L83.6934 225.611L104.521 214.086L116.021 234.959L95.1932 246.484ZM85.0989 225.995L95.7043 245.203L114.871 234.575L104.265 215.367L85.0989 225.995Z" fill="white" fill-opacity="0.1"/>
<path d="M126.365 254.84L106.457 265.863L117.456 285.814L137.364 274.791L126.365 254.84Z" fill="white" fill-opacity="0.35"/>
<path d="M117.298 286.437L105.799 265.564L126.626 254.039L138.126 274.912L117.298 286.437ZM107.076 265.948L117.682 285.156L136.848 274.528L126.243 255.32L107.076 265.948Z" fill="white" fill-opacity="0.1"/>
<path d="M186.27 221.644L166.362 232.667L177.361 252.618L197.269 241.595L186.27 221.644Z" fill="white" fill-opacity="0.4"/>
<path d="M177.097 253.271L165.598 232.398L186.425 220.873L197.925 241.746L177.097 253.271ZM167.003 232.91L177.609 252.118L196.775 241.49L186.17 222.282L167.003 232.91Z" fill="white" fill-opacity="0.1"/>
<path d="M263.94 126.389L244.032 137.412L255.031 157.363L274.939 146.34L263.94 126.389Z" fill="white" fill-opacity="0.35"/>
<path d="M254.913 158.127L243.413 137.254L264.241 125.73L275.741 146.602L254.913 158.127ZM244.691 137.639L255.296 156.847L274.463 146.218L263.857 127.01L244.691 137.639Z" fill="white" fill-opacity="0.1"/>
<path d="M252.956 106.393L233.048 117.416L244.047 137.367L263.955 126.344L252.956 106.393Z" fill="white" fill-opacity="0.4"/>
<path d="M243.797 138.151L232.297 117.278L253.124 105.753L264.624 126.626L243.797 138.151ZM233.702 117.662L244.308 136.87L263.474 126.242L252.869 107.034L233.702 117.662Z" fill="white" fill-opacity="0.1"/>
<path d="M219.892 46.4699L199.984 57.4929L210.983 77.444L230.891 66.4211L219.892 46.4699Z" fill="white" fill-opacity="0.35"/>
<path d="M210.83 78.0938L199.331 57.2211L220.158 45.6963L231.658 66.569L210.83 78.0938ZM200.608 57.6052L211.214 76.8132L230.38 66.1848L219.775 46.9768L200.608 57.6052Z" fill="white" fill-opacity="0.1"/>
<path d="M241.86 86.4618L221.952 97.4847L232.951 117.436L252.859 106.413L241.86 86.4618Z" fill="white" fill-opacity="0.4"/>
<path d="M232.808 118.046L221.308 97.1737L242.136 85.6489L253.635 106.522L232.808 118.046ZM222.586 97.6859L233.191 116.894L252.358 106.266L241.752 87.0575L222.586 97.6859Z" fill="white" fill-opacity="0.1"/>
<path d="M230.875 66.463L210.967 77.486L221.966 97.4371L241.874 86.4142L230.875 66.463Z" fill="white" fill-opacity="0.4"/>
<path d="M221.819 98.0701L210.319 77.1974L231.147 65.6726L242.647 86.5453L221.819 98.0701ZM211.597 77.7096L222.202 96.9176L241.369 86.2892L230.763 67.0812L211.597 77.7096Z" fill="white" fill-opacity="0.1"/>
<path d="M285.97 166.494L266.062 177.517L277.061 197.468L296.969 186.445L285.97 166.494Z" fill="white" fill-opacity="0.35"/>
<path d="M276.891 198.08L265.391 177.207L286.218 165.682L297.718 186.555L276.891 198.08ZM266.669 177.591L277.274 196.799L296.44 186.171L285.835 166.963L266.669 177.591Z" fill="white" fill-opacity="0.1"/>
<path d="M60.2849 134.819L40.377 145.842L51.376 165.793L71.2839 154.77L60.2849 134.819Z" fill="white" fill-opacity="0.35"/>
<path d="M51.1107 166.451L39.6108 145.578L60.4383 134.053L71.9381 154.926L51.1107 166.451ZM41.0164 146.09L51.6218 165.298L70.7882 154.67L60.1828 135.462L41.0164 146.09Z" fill="white" fill-opacity="0.1"/>
<path d="M166.318 232.651L146.41 243.674L157.409 263.625L177.317 252.603L166.318 232.651Z" fill="white" fill-opacity="0.35"/>
<path d="M157.165 264.411L145.665 243.539L166.492 232.014L177.992 252.887L157.165 264.411ZM147.07 243.923L157.676 263.131L176.842 252.502L166.237 233.294L147.07 243.923Z" fill="white" fill-opacity="0.1"/>
<path d="M266.018 177.499L246.11 188.521L257.109 208.473L277.017 197.45L266.018 177.499Z" fill="white" fill-opacity="0.35"/>
<path d="M256.958 209.092L245.458 188.22L266.285 176.695L277.785 197.568L256.958 209.092ZM246.736 188.732L257.341 207.94L276.507 197.311L265.902 178.103L246.736 188.732Z" fill="white" fill-opacity="0.1"/>
<path d="M206.223 210.634L186.315 221.657L197.314 241.608L217.222 230.585L206.223 210.634Z" fill="white" fill-opacity="0.4"/>
<path d="M197.159 242.258L185.659 221.385L206.486 209.861L217.986 230.733L197.159 242.258ZM186.936 221.77L197.542 240.978L216.708 230.349L206.103 211.141L186.936 221.77Z" fill="white" fill-opacity="0.1"/>
<path d="M226.113 199.516L206.205 210.539L217.204 230.49L237.112 219.467L226.113 199.516Z" fill="white" fill-opacity="0.4"/>
<path d="M217.091 231.245L205.592 210.373L226.419 198.848L237.919 219.721L217.091 231.245ZM206.869 210.757L217.475 229.965L236.641 219.337L226.036 200.129L206.869 210.757Z" fill="white" fill-opacity="0.1"/>
<path d="M246.066 188.506L226.158 199.529L237.157 219.48L257.065 208.457L246.066 188.506Z" fill="white" fill-opacity="0.35"/>
<path d="M237.024 220.233L225.525 199.36L246.352 187.835L257.852 208.708L237.024 220.233ZM226.802 199.744L237.408 218.952L256.574 208.324L245.969 189.116L226.802 199.744Z" fill="white" fill-opacity="0.1"/>
<path d="M274.924 146.383L255.016 157.406L266.015 177.357L285.923 166.334L274.924 146.383Z" fill="white" fill-opacity="0.35"/>
<path d="M265.902 178.103L254.402 157.231L275.229 145.706L286.729 166.579L265.902 178.103ZM255.68 157.615L266.285 176.823L285.452 166.194L274.846 146.986L255.68 157.615Z" fill="white" fill-opacity="0.1"/>
<path d="M78.0483 72.7599L58.1404 83.7828L69.1394 103.734L89.0473 92.711L78.0483 72.7599Z" fill="white" fill-opacity="0.35"/>
<path d="M68.9991 104.473L57.4993 83.6001L78.3267 72.0753L89.8266 92.948L68.9991 104.473ZM58.777 83.9843L69.3824 103.192L88.5488 92.5639L77.9434 73.3559L58.777 83.9843Z" fill="white" fill-opacity="0.1"/>
<path d="M58.0959 83.7689L38.188 94.7919L49.187 114.743L69.095 103.72L58.0959 83.7689Z" fill="white" fill-opacity="0.35"/>
<path d="M49.0662 115.485L37.5664 94.6127L58.3939 83.0879L69.8937 103.961L49.0662 115.485ZM38.8442 94.9969L49.4496 114.205L68.6159 103.576L58.0105 84.3684L38.8442 94.9969Z" fill="white" fill-opacity="0.1"/>
<path d="M208.907 26.4731L188.999 37.496L199.998 57.4472L219.906 46.4242L208.907 26.4731Z" fill="white" fill-opacity="0.35"/>
<path d="M199.714 58.1175L188.214 37.2448L209.042 25.72L220.541 46.5927L199.714 58.1175ZM189.62 37.6289L200.225 56.8369L219.391 46.2085L208.786 27.0005L189.62 37.6289Z" fill="white" fill-opacity="0.1"/>
<path d="M98.0002 61.7523L78.0923 72.7753L89.0913 92.7264L108.999 81.7035L98.0002 61.7523Z" fill="white" fill-opacity="0.4"/>
<path d="M88.9322 93.3321L77.4324 72.4594L98.2598 60.9346L109.76 81.8073L88.9322 93.3321ZM78.8379 72.8436L89.4433 92.0516L108.61 81.4232L98.0043 62.2152L78.8379 72.8436Z" fill="white" fill-opacity="0.1"/>
<path d="M38.205 94.8892L18.2971 105.912L29.2962 125.863L49.2041 114.84L38.205 94.8892Z" fill="white" fill-opacity="0.35"/>
<path d="M29.1331 126.498L17.6333 105.625L38.4608 94.1005L49.9606 114.973L29.1331 126.498ZM18.9111 106.009L29.5165 125.217L48.6828 114.589L38.0774 95.381L18.9111 106.009Z" fill="white" fill-opacity="0.1"/>
<path d="M49.1899 114.884L29.282 125.907L40.281 145.858L60.1889 134.835L49.1899 114.884Z" fill="white" fill-opacity="0.35"/>
<path d="M40.1219 146.474L28.6221 125.602L49.4495 114.077L60.9494 134.949L40.1219 146.474ZM29.8998 125.986L40.5052 145.194L59.6716 134.565L49.0662 115.357L29.8998 125.986Z" fill="white" fill-opacity="0.1"/>
<path d="M197.75 6.42775L177.842 17.4507L188.841 37.4018L208.749 26.3789L197.75 6.42775Z" fill="white" fill-opacity="0.35"/>
<path d="M188.725 38.1411L177.225 17.2685L198.053 5.74365L209.553 26.6163L188.725 38.1411ZM178.503 17.6526L189.109 36.8606L208.275 26.2322L197.669 7.02419L178.503 17.6526Z" fill="white" fill-opacity="0.1"/>
<path d="M177.859 17.5479L157.951 28.5708L168.95 48.5219L188.858 37.499L177.859 17.5479Z" fill="white" fill-opacity="0.35"/>
<path d="M168.792 49.1537L157.292 28.281L178.12 16.7562L189.62 37.6289L168.792 49.1537ZM158.57 28.6652L169.175 47.8732L188.342 37.2448L177.736 18.0368L158.57 28.6652Z" fill="white" fill-opacity="0.1"/>
<path d="M137.955 39.5626L118.047 50.5856L129.046 70.5367L148.954 59.5138L137.955 39.5626Z" fill="white" fill-opacity="0.4"/>
<path d="M128.926 71.307L117.426 50.4343L138.254 38.9095L149.754 59.7822L128.926 71.307ZM118.704 50.8184L129.309 70.0264L148.476 59.398L137.87 40.19L118.704 50.8184Z" fill="white" fill-opacity="0.1"/>
<path d="M157.906 28.5534L137.999 39.5764L148.998 59.5275L168.906 48.5046L157.906 28.5534Z" fill="white" fill-opacity="0.35"/>
<path d="M148.859 60.1663L137.359 39.2936L158.187 27.7688L169.687 48.6415L148.859 60.1663ZM138.637 39.8058L149.243 59.0138L168.409 48.3854L157.804 29.1774L138.637 39.8058Z" fill="white" fill-opacity="0.1"/>
<path d="M118.064 50.6832L98.1565 61.7062L109.156 81.6573L129.063 70.6344L118.064 50.6832Z" fill="white" fill-opacity="0.4"/>
<path d="M108.865 82.3195L97.3655 61.4469L118.193 49.9221L129.693 70.7947L108.865 82.3195ZM98.771 61.831L109.376 81.039L128.543 70.4106L117.937 51.2026L98.771 61.831Z" fill="white" fill-opacity="0.1"/>
<path d="M79.8497 71.7808L76.4944 73.6385L175.733 253.647L179.088 251.789L79.8497 71.7808Z" fill="white" fill-opacity="0.1"/>
<path d="M139.645 38.6445L136.289 40.5023L235.528 220.511L238.883 218.653L139.645 38.6445Z" fill="white" fill-opacity="0.1"/>
<path d="M230.055 64.6999L50.4368 164.133L52.2902 167.496L231.909 68.0624L230.055 64.6999Z" fill="white" fill-opacity="0.1"/>
<path d="M263.19 124.726L83.5713 224.18L85.4251 227.542L265.044 128.088L263.19 124.726Z" fill="white" fill-opacity="0.1"/>
<path d="M116.787 288.357L15.7166 105.113L198.564 3.82288L299.635 187.067L116.787 288.357ZM20.8276 106.65L118.193 283.235L294.396 185.659L197.158 9.07306L20.8276 106.65Z" fill="white" fill-opacity="0.1"/>
<path d="M307.173 352C313.306 350.079 319.056 346.75 324.295 343.036C330.428 338.682 336.051 333.816 341.545 328.822C346.912 323.956 352.406 319.218 357.389 313.968C363.65 307.437 369.272 300.266 374 292.583C369.4 287.717 364.928 282.723 360.456 277.729C355.856 272.607 351.384 267.357 346.784 262.234C342.184 257.112 337.456 252.118 332.984 246.868C331.195 244.691 329.534 242.514 327.745 240.337C332.217 234.703 333.878 226.892 334.39 219.849C335.028 209.476 333.24 199.104 329.917 189.372C326.467 179 321.356 169.268 315.606 160.048C310.112 151.212 303.979 143.145 296.312 136.23C288.262 128.931 278.551 122.4 268.074 119.455C267.563 118.943 267.052 118.559 266.541 118.046C263.985 115.357 261.302 112.668 257.852 111.132C254.785 109.723 251.335 109.211 247.885 109.083C244.308 108.827 240.73 109.211 237.152 109.211C235.491 108.314 233.702 107.674 231.658 107.546C225.908 107.29 220.413 110.875 215.813 113.821C212.875 115.741 210.064 117.662 206.997 119.327C203.93 121.12 200.864 122.784 197.797 124.577C194.858 126.37 191.919 128.035 188.853 129.699C186.425 130.98 183.87 132.004 181.697 133.669C179.525 135.334 178.12 137.767 176.97 140.2C175.692 143.017 174.542 145.834 173.136 148.523C171.092 152.365 167.259 155.438 166.109 159.792C164.831 164.786 168.92 168.499 173.52 169.268C177.225 169.908 181.825 169.14 184.253 166.066C184.125 166.835 184.125 167.603 183.87 168.371C183.486 169.78 182.975 171.06 182.336 172.469C181.186 175.286 179.908 178.103 179.525 181.049C179.142 183.866 179.397 186.555 181.442 188.732C183.742 191.165 186.808 191.421 189.619 189.884C190.514 189.372 191.281 188.732 192.047 187.964C192.047 188.348 192.047 188.732 192.047 188.988C192.175 190.525 192.303 192.061 192.686 193.598C193.325 196.415 194.347 200.001 196.775 201.921C197.414 202.434 198.564 202.946 199.586 202.818C199.714 203.074 199.714 203.33 199.842 203.586C201.375 208.196 204.058 212.422 206.486 216.647C209.041 221.001 211.725 225.227 214.025 229.581C216.069 233.551 217.986 237.52 220.413 241.362C222.713 245.075 225.397 248.533 228.719 251.35C232.169 254.295 235.874 256.856 239.708 259.161C243.541 261.466 247.502 263.515 251.719 265.308C255.935 267.1 260.407 268.509 264.752 270.046C265.263 270.302 265.774 270.43 266.285 270.686C267.946 273.887 269.863 276.961 271.652 280.034C275.357 286.437 278.424 293.095 281.49 299.754C287.751 313.2 294.651 326.389 300.912 339.835C302.829 343.548 304.873 347.902 307.173 352Z" fill="url(#paint0_linear_20_5632)"/>
<path opacity="0.56" d="M235.874 154.67C233.574 151.468 231.53 148.011 228.847 144.938C226.547 142.377 223.736 139.944 220.286 139.431C214.664 138.791 209.425 142.761 204.569 144.938C202.014 146.09 199.33 146.858 196.647 146.602C194.986 146.474 193.453 145.834 191.919 145.066C192.175 145.322 192.431 145.45 192.686 145.706C194.986 148.011 196.775 150.572 198.692 153.133C200.864 156.078 203.419 158.767 205.847 161.585C208.019 164.018 209.936 166.707 211.852 169.396C214.919 173.622 218.241 177.719 221.947 181.433C225.397 184.89 229.358 187.964 233.83 189.884C235.619 190.525 237.535 191.037 239.58 191.037C241.113 191.037 242.646 190.909 244.052 190.14C244.819 189.628 245.585 188.988 246.224 188.348C246.48 187.707 246.735 186.939 246.991 186.299C248.013 182.969 248.269 179.256 248.013 175.798C247.246 167.475 240.474 161.2 235.874 154.67Z" fill="#CAB2FF"/>
<mask id="mask0_20_5632" style="mask-type:luminance" maskUnits="userSpaceOnUse" x="120" y="130" width="244" height="76">
<path d="M182.208 160.176C182.208 160.176 176.075 153.261 180.292 147.883C184.508 142.505 191.025 143.529 199.075 149.932C207.252 156.334 209.68 163.89 211.341 166.323C212.875 168.756 349.084 205.507 349.084 205.507C349.084 205.507 365.439 201.153 363.267 187.836C361.222 174.518 333.367 174.39 329.662 171.701C325.828 169.012 153.203 130.468 153.203 130.468L120.237 132.773L158.698 160.56L182.208 160.176Z" fill="white"/>
</mask>
<g mask="url(#mask0_20_5632)">
<path d="M143.748 135.59C147.453 135.974 151.031 136.614 154.737 136.998C160.231 137.767 165.853 138.535 171.348 139.559C171.348 139.047 171.22 138.663 171.092 138.151L155.248 134.309L139.787 135.078C141.065 135.334 142.47 135.462 143.748 135.59Z" fill="#F6A873"/>
<path d="M169.942 151.34C167.514 150.7 165.214 149.932 162.786 149.291C159.464 148.267 156.142 147.243 152.948 145.962C149.626 144.682 146.431 143.273 143.237 141.864C138.253 139.687 133.27 137.639 128.159 135.846L151.414 150.572L168.281 154.67C169.047 153.517 169.559 152.493 169.942 151.34Z" fill="#F6A873"/>
<path d="M171.475 143.145C171.475 141.48 171.347 139.815 171.092 138.279L155.248 134.437L128.159 135.846L151.542 150.572L168.409 154.67C170.581 151.212 171.475 147.115 171.475 143.145Z" fill="#F6A873"/>
<path d="M141 135L128 135.727L139.304 143C138.88 140.236 139.446 137.182 141 135Z" fill="#231F20"/>
<path d="M151.414 145.066L349.211 193.598C349.467 192.701 349.595 191.805 349.722 191.037C349.978 189.756 350.233 188.476 350.361 187.067L150.52 138.023C151.542 138.535 152.692 139.047 153.586 139.815C157.036 142.889 153.331 145.066 151.414 145.066Z" fill="#005C9C"/>
<path d="M350.489 186.939C350.617 185.531 350.745 184.122 351 182.841V182.713C351 182.457 351 182.201 351.128 182.073L155.248 134.437C156.27 135.206 152.82 137.895 150.392 138.023C150.392 138.023 150.392 138.023 150.52 138.023L350.361 187.067C350.489 187.067 350.489 186.939 350.489 186.939Z" fill="#008BCF"/>
<path d="M348.828 195.006C348.956 194.494 349.084 194.11 349.211 193.598L151.414 145.066C151.414 145.066 151.414 145.066 151.287 145.066C152.82 146.09 153.331 150.316 152.309 150.572L347.423 198.464C347.678 198.08 347.934 197.824 348.061 197.439C348.317 196.671 348.7 195.903 348.828 195.006Z" fill="#073C70"/>
<path d="M355.856 191.549C354.961 196.159 351.256 199.232 347.55 198.592C343.845 197.824 341.673 193.598 342.567 188.988C343.462 184.378 347.167 181.305 350.873 181.945C354.578 182.713 356.75 187.067 355.856 191.549Z" fill="#E3C3AC"/>
<path d="M353.428 190.909C352.917 193.342 351 195.135 348.956 194.622C347.039 194.238 345.761 191.933 346.273 189.372C346.784 186.939 348.7 185.146 350.745 185.659C352.661 186.043 353.939 188.348 353.428 190.909Z" fill="#E3C3AC"/>
<path d="M352.661 190.781C352.278 192.83 350.617 194.11 349.084 193.854C347.55 193.598 346.528 191.677 346.911 189.628C347.295 187.579 348.956 186.299 350.489 186.555C352.15 186.939 353.045 188.732 352.661 190.781Z" fill="#241A12"/>
</g>
<path d="M51.3659 197.311C48.5548 187.963 45.3604 178.103 42.0383 167.731C41.0161 170.292 39.6105 171.957 38.205 172.981L35.905 167.347C37.8217 165.17 38.9716 162.609 39.355 159.664L45.3604 157.103C48.2993 167.475 50.9826 176.951 53.5381 185.659C54.5603 189.244 55.5825 192.573 56.6047 195.903L51.3659 197.311Z" fill="white"/>
<path d="M13.5443 148.395L9.71099 139.047C16.4831 126.114 19.9331 117.918 19.9331 114.333C19.9331 112.156 19.6775 110.235 19.1664 108.442C18.7831 107.29 18.3997 106.266 17.7609 105.369C16.2276 102.936 14.4387 101.912 12.6498 102.296L12.1387 102.424C10.6054 102.936 9.45543 103.833 8.81655 105.241C8.30545 106.522 8.561 108.699 9.58321 111.9C9.83876 112.668 10.0943 113.565 10.4776 114.589L1.91666 116.254C0.255571 111.003 -0.255533 106.778 0.511123 103.448C1.27778 100.119 2.93886 97.6859 5.87771 96.0213C7.41102 95.1249 8.81655 94.4846 10.2221 93.9724C11.4998 93.5882 12.7776 93.3321 13.9276 93.3321C16.4831 93.2041 18.6553 93.9724 20.5719 95.509C22.4886 97.0457 24.2774 99.2226 25.683 102.168C26.4496 103.704 27.0885 105.241 27.5996 106.778C28.1107 108.186 28.3663 109.723 28.6218 111.132C29.0051 114.205 28.494 117.918 26.7052 122.272C25.0441 126.626 22.233 132.388 18.3997 139.431C20.4442 138.791 22.233 138.279 24.0219 137.639C29.2607 135.974 33.6051 134.437 36.7995 133.029L39.6105 141.608L13.5443 148.395Z" fill="white"/>
<path d="M98.2597 25.7199C100.049 24.0553 102.221 23.1589 104.648 22.9028C105.287 22.9028 105.926 22.7747 106.437 22.7747C108.226 22.7747 109.759 23.0308 111.293 23.6711C113.337 24.4394 114.743 26.1041 115.509 28.4091C116.148 30.0738 116.404 31.8665 116.404 33.5312C116.404 34.1715 116.404 34.9398 116.276 35.58C115.893 38.0131 114.232 39.9339 111.165 41.2144C113.848 41.9827 115.637 43.3913 116.532 45.184C117.298 47.1048 117.809 48.7695 117.809 50.4342C117.809 52.0989 117.554 53.7636 117.043 55.3003C116.532 56.8369 115.382 58.3735 113.337 59.9102C111.293 61.4468 108.865 62.3432 106.054 62.3432C105.926 62.3432 105.798 62.3432 105.543 62.3432C102.86 62.3432 100.432 61.3188 98.2597 59.398C95.9597 57.4772 94.9375 54.2758 94.9375 49.922V49.1537L101.199 48.6415C101.582 52.7392 102.987 54.9161 105.543 55.0442C105.798 55.0442 106.182 55.0442 106.437 55.0442C108.482 55.0442 110.015 54.4039 110.782 53.2514C111.293 52.6111 111.421 51.7148 111.421 50.8184C111.421 49.922 111.165 48.8976 110.782 47.7451C109.887 45.6963 107.332 44.4157 102.86 44.1596L102.348 39.0375C103.626 38.9094 105.032 38.5253 106.565 38.0131C108.098 37.5008 109.121 36.4764 109.504 34.9398C109.632 34.4276 109.759 33.9154 109.759 33.4031C109.759 32.5068 109.504 31.4823 108.993 30.586C108.354 29.6896 107.46 29.1774 106.182 29.1774C105.671 29.1774 105.032 29.3054 104.393 29.4335C102.476 29.9457 101.454 31.4823 101.454 34.0434C101.454 34.4276 101.454 34.8117 101.454 35.3239L95.0653 35.0678C95.4486 30.4579 96.343 27.2566 98.2597 25.7199Z" fill="white"/>
<path d="M45.3604 37.6289L47.5326 29.8177L38.0771 27.1286L38.9716 22.5186C44.0826 18.549 48.8103 14.4513 53.4103 10.0975L57.4991 11.378L53.0269 26.4883L56.3491 27.5127L54.9436 32.2507L51.3658 31.0982L49.0659 39.0375L45.3604 37.6289ZM49.0659 25.0797L51.6214 16.3721C49.3214 18.4209 46.7659 20.854 43.6993 23.415L49.0659 25.0797Z" fill="white"/>
<path d="M59.2881 98.7104L65.4213 97.5579C65.5491 100.247 66.3158 102.04 67.5935 103.064C68.4879 103.833 69.5102 104.217 70.5324 104.217C70.9157 104.217 71.299 104.217 71.6823 104.089C73.0879 103.704 74.1101 103.064 74.8767 102.168C75.6434 101.271 75.899 99.991 75.899 98.0702V97.5579C75.7712 95.5091 74.8767 93.7163 72.9601 92.4358C72.1934 91.9236 71.4268 91.6675 70.5324 91.6675C69.2546 91.6675 67.8491 92.3078 66.4435 93.5883L60.0547 93.0761L60.9492 71.5631L80.1156 70.9229L80.2433 78.7341H66.9546L66.6991 87.9539C68.6157 86.6734 70.4046 86.0331 72.3212 86.0331C73.0879 86.0331 73.8545 86.1612 74.6212 86.2892C77.1767 87.0576 79.0933 88.21 80.3711 90.0028C81.5211 91.7955 82.2877 93.4602 82.6711 95.253C82.7988 95.8932 82.7989 96.6616 82.7989 97.4299C82.7989 98.7104 82.6711 99.9909 82.2877 101.528C81.7766 103.961 80.8822 105.881 79.86 107.162C78.71 108.571 77.0489 109.467 74.8767 110.235C73.3434 110.747 71.8101 111.004 70.2768 111.004C69.5102 111.004 68.7435 111.004 67.9768 110.875C65.5491 110.491 63.5047 109.339 61.9714 107.29C60.3103 105.369 59.4159 102.424 59.2881 98.7104Z" fill="white"/>
<path d="M95.0652 205.123H95.3207C96.9818 205.123 98.5151 205.635 99.6651 206.531C100.815 207.556 101.582 208.836 101.837 210.373C101.965 211.141 101.965 211.781 101.965 212.422C101.965 213.19 101.837 213.83 101.71 214.471C101.454 215.623 100.943 216.647 100.304 217.8C99.6651 218.824 98.6429 219.593 97.3652 219.977C96.343 220.233 95.4485 220.489 94.4263 220.489C94.1708 220.489 93.7874 220.489 93.5319 220.489C92.2541 220.361 91.1041 219.849 89.9542 219.081C88.8042 218.312 88.0375 216.904 87.5264 214.983C87.0153 213.062 86.7598 210.629 86.7598 207.684C86.7598 207.3 86.7598 207.043 86.7598 206.659C86.7598 204.098 87.0153 202.049 87.3986 200.385C87.782 198.464 88.5486 196.927 89.5708 195.775C90.593 194.622 91.743 193.854 92.893 193.598C93.5319 193.47 94.1708 193.342 94.8096 193.342C95.3207 193.342 95.8319 193.342 96.4707 193.47C97.6207 193.726 98.7707 194.494 99.9207 195.647C100.943 196.927 101.582 199.104 101.837 202.306L97.7485 203.33C97.7485 201.921 97.4929 200.769 97.3652 199.873C97.1096 198.976 96.7263 198.336 96.0874 198.08C95.7041 197.952 95.3208 197.824 94.9374 197.824C94.6819 197.824 94.2985 197.824 93.9152 197.952C93.1486 198.208 92.5097 198.72 92.1263 199.616C91.6152 200.513 91.3597 202.946 91.2319 206.787C91.743 205.763 93.1486 205.123 95.0652 205.123ZM91.743 214.343C91.9986 215.111 92.6375 215.751 93.6597 216.135C94.043 216.263 94.4263 216.391 94.8096 216.391C95.3207 216.391 95.7041 216.263 96.0874 216.007C96.7263 215.495 97.2374 214.983 97.3652 214.214C97.6207 213.574 97.6207 212.678 97.6207 211.653C97.6207 210.629 97.1096 209.733 95.9596 209.092C95.5763 208.836 95.193 208.708 94.6819 208.708C93.6597 208.708 92.6375 209.22 91.2319 210.117C91.2319 212.038 91.3597 213.446 91.743 214.343Z" fill="white"/>
<path d="M120.109 128.419L118.065 134.437C108.993 141.736 102.093 151.084 97.2373 162.737L91.9985 160.56C97.6207 148.011 104.137 138.663 111.676 132.517L97.6207 127.65L99.9206 120.736L120.109 128.419Z" fill="white"/>
<path d="M184.636 30.3299C187.958 33.6593 189.747 36.6045 190.003 39.4217C190.258 42.2388 190.003 44.7999 189.364 47.2329V47.489C188.725 49.794 187.575 51.8428 186.042 53.7636C184.508 55.6844 182.72 57.093 180.675 57.9894C178.631 58.8858 176.203 59.2699 173.648 59.1419C171.603 59.0138 169.559 58.7577 167.642 58.1175C167.131 57.9894 166.492 57.7333 165.981 57.4772C163.553 56.5808 161.892 55.6844 160.998 54.9161C160.103 54.1478 159.209 53.1234 158.442 51.9709C157.676 50.6904 157.037 49.2818 156.526 47.7451C156.142 46.2085 155.887 44.6719 156.014 43.2633C156.142 41.8547 156.398 40.0619 156.909 37.757C157.037 37.3728 157.037 37.1167 157.164 36.7326C157.803 34.8118 158.826 32.891 160.359 30.8421C162.148 28.5371 164.575 26.8725 167.898 25.9761C165.598 23.5431 164.32 21.2381 164.064 19.3173C163.937 17.2685 164.064 15.2196 164.575 13.0427C164.703 12.6585 164.703 12.4024 164.831 12.0183C165.342 10.0975 166.364 8.30472 167.642 6.51198C169.175 4.33507 171.092 2.79843 173.136 1.774C175.181 0.749577 177.864 0.49347 181.059 0.87763C182.336 1.00568 183.614 1.26179 184.892 1.64595C186.553 2.15816 188.214 2.79843 189.619 3.6948C192.047 5.23144 193.836 7.02419 194.986 9.2011C196.008 11.378 196.519 13.5549 196.264 15.9879C196.136 17.3965 195.881 18.9331 195.497 20.2137C195.242 21.1101 194.858 22.1345 194.475 23.0309C193.453 25.2078 192.047 26.8725 190.386 28.0249C188.597 29.4335 186.808 30.0738 184.636 30.3299ZM175.564 32.2507C171.859 32.5068 169.431 33.4032 168.153 34.8118C166.875 36.2203 166.109 37.5009 165.725 38.7814V38.9095C165.342 40.19 165.342 41.5986 165.853 43.3913C166.237 45.1841 167.003 46.4646 168.025 47.2329C168.664 47.8732 169.559 48.2574 170.581 48.5135C171.092 48.6415 171.475 48.7696 171.986 48.7696C173.648 49.0257 175.053 49.0257 176.331 48.6415C177.481 48.2574 178.631 47.489 179.525 46.4646C180.036 45.8243 180.547 45.056 180.803 44.1596C181.059 43.5194 181.186 42.7511 181.186 41.8547C181.314 39.8058 181.059 38.2692 180.42 36.9887C179.781 35.8362 178.247 34.1715 175.564 32.2507ZM181.697 23.1589C182.975 22.7747 183.997 22.1345 184.636 21.3662C185.147 20.7259 185.658 19.8295 185.914 18.8051C186.042 18.549 186.042 18.2929 186.17 17.9087C186.425 16.5001 186.553 15.2196 186.297 14.1952C186.042 13.1707 185.531 12.2744 184.764 11.6341C184.125 11.1219 183.358 10.7377 182.464 10.4816C182.208 10.3536 182.081 10.3536 181.825 10.3536C180.547 10.0975 179.397 9.96941 178.247 10.0975C177.097 10.2255 176.203 10.7377 175.436 11.6341C174.67 12.5305 174.031 13.683 173.648 14.9635C173.264 16.244 173.136 17.6526 173.392 19.0612C173.648 20.4698 174.925 22.0064 177.481 23.7992C178.886 23.6711 180.42 23.5431 181.697 23.1589Z" fill="white"/>
<path d="M144.898 96.1493C144.77 96.1493 144.642 96.1493 144.642 96.1493C142.853 96.1493 141.32 95.637 140.17 94.7407C138.892 93.7162 138.253 92.1796 137.998 90.2588C137.87 89.3624 137.87 88.5941 137.87 87.8258C137.87 86.9294 137.998 86.1611 138.126 85.5208C138.381 84.3683 138.892 83.2159 139.531 82.1914C140.17 81.039 141.192 80.3987 142.598 79.8865C143.62 79.6304 144.642 79.3743 145.664 79.3743C146.048 79.3743 146.303 79.3743 146.687 79.3743C147.964 79.5023 149.242 80.0145 150.392 80.7829C151.542 81.5512 152.437 82.9598 152.948 85.0086C153.459 87.0575 153.714 89.6185 153.714 92.5638V93.5882C153.714 96.1493 153.459 98.3262 153.075 100.119C152.564 102.168 151.798 103.704 150.775 104.985C149.625 106.265 148.476 107.034 147.326 107.29C146.687 107.418 145.92 107.546 145.281 107.546C144.77 107.546 144.131 107.546 143.62 107.418C142.342 107.162 141.192 106.394 140.042 105.113C138.892 103.832 138.253 101.784 138.126 99.0945L142.47 98.0701C142.47 99.6067 142.726 100.631 142.853 101.271C143.109 101.912 143.492 102.296 144.259 102.552C144.642 102.68 145.026 102.808 145.409 102.808C145.792 102.808 146.048 102.808 146.431 102.68C147.198 102.424 147.837 102.04 148.348 101.399C148.859 100.759 149.114 98.4542 149.242 94.3565C148.22 95.509 146.814 96.0212 144.898 96.1493ZM148.348 85.6489C147.964 84.7525 147.326 84.2403 146.431 83.8561C146.048 83.7281 145.664 83.6 145.281 83.6C144.77 83.6 144.387 83.7281 144.003 83.9842C143.364 84.4964 142.853 85.1367 142.598 85.7769C142.342 86.5453 142.342 87.5697 142.342 88.9783C142.342 90.3869 142.981 91.4113 144.131 92.1796C144.514 92.4357 144.898 92.5638 145.409 92.5638C146.431 92.5638 147.581 92.0515 148.987 91.0271C148.859 88.2099 148.603 86.4172 148.348 85.6489Z" fill="white"/>
</g>
<defs>
<linearGradient id="paint0_linear_20_5632" x1="269.936" y1="107.533" x2="352.625" y2="306.653" gradientUnits="userSpaceOnUse">
<stop offset="0.547699" stop-color="#A175FF"/>
<stop offset="1" stop-color="#A175FF" stop-opacity="0"/>
</linearGradient>
<clipPath id="clip0_20_5632">
<rect width="374" height="352" fill="white"/>
</clipPath>
</defs>
</svg>
