<svg width="20" height="20" viewBox="0 0 20 20" fill="none" xmlns="http://www.w3.org/2000/svg">
<path fill-rule="evenodd" clip-rule="evenodd" d="M10 1.53846C14.6732 1.53846 18.4615 5.32682 18.4615 10C18.4615 14.6732 14.6732 18.4615 10 18.4615C5.32682 18.4615 1.53846 14.6732 1.53846 10C1.53846 9.57517 1.19406 9.23077 0.76923 9.23077C0.344396 9.23077 -1.13249e-06 9.57517 -1.13249e-06 10C-1.13249e-06 15.5228 4.47715 20 10 20C15.5228 20 20 15.5228 20 10C20 4.47715 15.5228 0 10 0C7.15792 0 4.59334 1.18586 2.77337 3.08811V0.769231C2.77337 0.344396 2.42898 0 2.00414 0C1.57931 0 1.23491 0.344396 1.23491 0.769231V5.38462C1.23491 5.80945 1.57931 6.15385 2.00414 6.15385H6.53846C6.96329 6.15385 7.30769 5.80945 7.30769 5.38462C7.30769 4.95978 6.96329 4.61538 6.53846 4.61538H3.47244C5.02516 2.7352 7.37314 1.53846 10 1.53846Z" fill="white"/>
</svg>
