<svg width="18" height="21" viewBox="0 0 18 21" fill="none" xmlns="http://www.w3.org/2000/svg">
<path fill-rule="evenodd" clip-rule="evenodd" d="M3.22458 1.19891C4.91252 0.0736127 7.12968 1.10526 7.45853 3.00001H10.75C12.2688 3.00001 13.5 4.23123 13.5 5.75001C13.5 6.16423 13.1642 6.50001 12.75 6.50001C12.3358 6.50001 12 6.16423 12 5.75001C12 5.05966 11.4404 4.50001 10.75 4.50001H7.5V17H10.75C11.4404 17 12 16.4404 12 15.75C12 15.3358 12.3358 15 12.75 15C13.1642 15 13.5 15.3358 13.5 15.75C13.5 17.2688 12.2688 18.5 10.75 18.5H7.45853C7.12968 20.3948 4.91252 21.4264 3.22458 20.3011L1.22457 18.9678C0.459528 18.4578 0 17.5991 0 16.6796V4.82038C0 3.90091 0.459528 3.04227 1.22457 2.53224L3.22458 1.19891ZM14.2197 13.014C13.9268 12.7211 13.9268 12.2462 14.2197 11.9533L14.9393 11.2336L9.75 11.2336C9.33579 11.2336 9 10.8979 9 10.4836C9 10.0694 9.33579 9.73364 9.75 9.73364L14.9393 9.73364L14.2197 9.01397C13.9268 8.72108 13.9268 8.24621 14.2197 7.95331C14.5126 7.66042 14.9874 7.66042 15.2803 7.95331L16.5732 9.24621C17.2566 9.92962 17.2566 11.0377 16.5732 11.7211L15.2803 13.014C14.9874 13.3069 14.5126 13.3069 14.2197 13.014Z" fill="#5974E0"/>
</svg>
