<svg width="20" height="20" viewBox="0 0 20 20" fill="none" xmlns="http://www.w3.org/2000/svg">
<path fill-rule="evenodd" clip-rule="evenodd" d="M0 10C0 15.5228 4.47715 20 10 20C15.5228 20 20 15.5228 20 10C20 4.47715 15.5228 0 10 0C4.47715 0 0 4.47715 0 10ZM6.64123 13.3587C6.93412 13.6516 7.409 13.6516 7.70189 13.3587L9.99999 11.0606L12.2981 13.3587C12.591 13.6516 13.0659 13.6516 13.3588 13.3587C13.6517 13.0658 13.6517 12.5909 13.3588 12.298L11.0607 9.99994L13.3587 7.70184C13.6516 7.40895 13.6516 6.93408 13.3587 6.64118C13.0659 6.34829 12.591 6.34829 12.2981 6.64118L9.99999 8.93928L7.70191 6.64119C7.40901 6.3483 6.93414 6.3483 6.64125 6.64119C6.34835 6.93409 6.34835 7.40896 6.64125 7.70185L8.93933 9.99994L6.64123 12.298C6.34834 12.5909 6.34834 13.0658 6.64123 13.3587Z" fill="white"/>
</svg>
