<svg width="20" height="20" viewBox="0 0 20 20" fill="none" xmlns="http://www.w3.org/2000/svg">
<path d="M18.8286 7.73508C19.4414 8.3626 18.8429 9.39929 17.993 9.18238L14.6408 8.32677C14.3475 8.25191 14.0364 8.33528 13.8198 8.54676L11.3445 10.9639C10.717 11.5766 9.68028 10.9781 9.89718 10.1283L10.7528 6.77603C10.8277 6.48273 10.7443 6.17161 10.5328 5.95504L8.11572 3.47974C7.50296 2.85222 8.1015 1.81553 8.95132 2.03244L12.3035 2.88805C12.5969 2.96291 12.908 2.87954 13.1245 2.66806L15.5999 0.250969C16.2274 -0.361788 17.2641 0.236746 17.0472 1.08657L16.1915 4.43879C16.1167 4.73209 16.2001 5.04321 16.4115 5.25978L18.8286 7.73508Z" fill="url(#paint0_linear_61_1435)"/>
<path d="M6.16333 7.07844C6.79574 7.3738 6.64092 8.31378 5.94719 8.39072L4.60252 8.53987C4.36309 8.56643 4.15479 8.71581 4.05285 8.93408L3.48034 10.1599C3.18498 10.7923 2.24501 10.6375 2.16806 9.94377L2.01891 8.59909C1.99236 8.35966 1.84297 8.15137 1.6247 8.04943L0.398881 7.47693C-0.233531 7.18157 -0.0787158 6.24159 0.615014 6.16464L1.95969 6.0155C2.19912 5.98894 2.40742 5.83956 2.50936 5.62129L3.08186 4.39546C3.37722 3.76305 4.3172 3.91787 4.39415 4.61159L4.5433 5.95628C4.56985 6.1957 4.71924 6.404 4.9375 6.50594L6.16333 7.07844Z" fill="url(#paint1_linear_61_1435)"/>
<path d="M11.0837 16.3157C11.7161 16.6111 11.5613 17.5511 10.8676 17.628L9.52293 17.7772C9.2835 17.8037 9.0752 17.9531 8.97326 18.1714L8.40075 19.3972C8.10539 20.0296 7.16542 19.8748 7.08847 19.1811L6.93932 17.8364C6.91277 17.597 6.76338 17.3887 6.54511 17.2867L5.31929 16.7142C4.68688 16.4189 4.84169 15.4789 5.53542 15.4019L6.8801 15.2528C7.11953 15.2262 7.32783 15.0769 7.42977 14.8586L8.00227 13.6328C8.29763 13.0004 9.23761 13.1552 9.31456 13.8489L9.46371 15.1936C9.49026 15.433 9.63965 15.6413 9.85791 15.7432L11.0837 16.3157Z" fill="url(#paint2_linear_61_1435)"/>
<defs>
<linearGradient id="paint0_linear_61_1435" x1="17.8117" y1="-1.90885" x2="9.1327" y2="13.1237" gradientUnits="userSpaceOnUse">
<stop offset="0.5" stop-color="#5974E0"/>
<stop offset="1" stop-color="#5974E0"/>
</linearGradient>
<linearGradient id="paint1_linear_61_1435" x1="4.12304" y1="2.16623" x2="2.43939" y2="12.3889" gradientUnits="userSpaceOnUse">
<stop offset="0.5" stop-color="#5974E0"/>
<stop offset="1" stop-color="#5974E0"/>
</linearGradient>
<linearGradient id="paint2_linear_61_1435" x1="9.04345" y1="11.4035" x2="7.3598" y2="21.6262" gradientUnits="userSpaceOnUse">
<stop offset="0.5" stop-color="#5974E0"/>
<stop offset="1" stop-color="#5974E0"/>
</linearGradient>
</defs>
</svg>
