<svg width="20" height="20" viewBox="0 0 20 20" fill="none" xmlns="http://www.w3.org/2000/svg">
<path fill-rule="evenodd" clip-rule="evenodd" d="M0.512582 0.512582C1.19603 -0.170861 2.3041 -0.170861 2.98755 0.512582L10 7.52503L17.0124 0.512684C17.6958 -0.170759 18.8039 -0.170759 19.4873 0.512684C20.1708 1.19613 20.1708 2.30421 19.4873 2.98765L12.475 10L19.4873 17.0124C20.1708 17.6958 20.1708 18.8039 19.4873 19.4873C18.8039 20.1708 17.6958 20.1708 17.0124 19.4873L10 12.475L2.98755 19.4874C2.3041 20.1709 1.19602 20.1709 0.512582 19.4874C-0.170861 18.804 -0.170861 17.6959 0.512582 17.0125L7.52503 10L0.512582 2.98755C-0.170861 2.3041 -0.170861 1.19602 0.512582 0.512582Z" fill="white"/>
</svg>
