<svg width="361" height="352" viewBox="0 0 361 352" fill="none" xmlns="http://www.w3.org/2000/svg">
<g clip-path="url(#clip0_39_15311)">
<path d="M224.796 117.463L205.58 128.486L216.197 148.437L235.413 137.414L224.796 117.463Z" fill="white" fill-opacity="0.4"/>
<path d="M216.082 149.163L204.982 128.291L225.085 116.766L236.185 137.639L216.082 149.163ZM206.215 128.675L216.452 147.883L234.952 137.254L224.715 118.046L206.215 128.675Z" fill="white" fill-opacity="0.1"/>
<path d="M214.194 97.4658L194.978 108.489L205.594 128.44L224.81 117.417L214.194 97.4658Z" fill="white" fill-opacity="0.4"/>
<path d="M205.475 129.187L194.375 108.314L214.479 96.7896L225.579 117.662L205.475 129.187ZM195.608 108.699L205.845 127.907L224.345 117.278L214.109 98.0701L195.608 108.699Z" fill="white" fill-opacity="0.1"/>
<path d="M246.168 157.505L226.952 168.528L237.569 188.479L256.785 177.456L246.168 157.505Z" fill="white" fill-opacity="0.35"/>
<path d="M237.419 189.116L226.319 168.243L246.422 156.719L257.522 177.591L237.419 189.116ZM227.552 168.627L237.789 187.835L256.289 177.207L246.052 157.999L227.552 168.627Z" fill="white" fill-opacity="0.1"/>
<path d="M192.989 57.4746L173.773 68.4976L184.39 88.4487L203.605 77.4258L192.989 57.4746Z" fill="white" fill-opacity="0.35"/>
<path d="M184.138 89.1065L173.038 68.2338L193.142 56.709L204.242 77.5817L184.138 89.1065ZM174.395 68.746L184.632 87.954L203.132 77.3256L192.895 58.1176L174.395 68.746Z" fill="white" fill-opacity="0.1"/>
<path d="M203.591 77.4722L184.375 88.4951L194.992 108.446L214.208 97.4233L203.591 77.4722Z" fill="white" fill-opacity="0.4"/>
<path d="M194.868 109.211L183.768 88.338L203.872 76.8132L214.972 97.6859L194.868 109.211ZM185.002 88.7222L195.238 107.93L213.738 97.3018L203.502 78.0938L185.002 88.7222Z" fill="white" fill-opacity="0.1"/>
<path d="M235.566 137.509L216.35 148.531L226.967 168.483L246.183 157.46L235.566 137.509Z" fill="white" fill-opacity="0.35"/>
<path d="M226.812 169.14L215.712 148.267L235.815 136.742L246.916 157.615L226.812 169.14ZM216.945 148.651L227.182 167.859L245.682 157.231L235.445 138.023L216.945 148.651Z" fill="white" fill-opacity="0.1"/>
<path d="M149.827 212.717L130.611 223.74L141.228 243.691L160.443 232.668L149.827 212.717Z" fill="white" fill-opacity="0.35"/>
<path d="M141.094 244.435L129.994 223.562L150.098 212.038L161.198 232.91L141.094 244.435ZM131.228 223.947L141.464 243.155L159.965 232.526L149.728 213.318L131.228 223.947Z" fill="white" fill-opacity="0.1"/>
<path d="M169.085 201.71L149.869 212.733L160.486 232.684L179.702 221.661L169.085 201.71Z" fill="white" fill-opacity="0.4"/>
<path d="M160.335 233.294L149.235 212.422L169.338 200.897L180.438 221.77L160.335 233.294ZM150.468 212.934L160.705 232.142L179.205 221.514L168.968 202.306L150.468 212.934Z" fill="white" fill-opacity="0.1"/>
<path d="M188.452 190.641L169.236 201.664L179.852 221.615L199.068 210.592L188.452 190.641Z" fill="white" fill-opacity="0.4"/>
<path d="M179.575 222.282L168.475 201.409L188.578 189.884L199.678 210.757L179.575 222.282ZM169.831 201.793L180.068 221.001L198.568 210.373L188.332 191.165L169.831 201.793Z" fill="white" fill-opacity="0.1"/>
<path d="M207.651 179.519L188.435 190.542L199.052 210.493L218.268 199.47L207.651 179.519Z" fill="white" fill-opacity="0.4"/>
<path d="M198.815 211.269L187.715 190.397L207.818 178.872L218.919 199.745L198.815 211.269ZM189.072 190.781L199.308 209.989L217.809 199.36L207.572 180.152L189.072 190.781Z" fill="white" fill-opacity="0.1"/>
<path d="M226.909 168.516L207.693 179.539L218.31 199.49L237.526 188.467L226.909 168.516Z" fill="white" fill-opacity="0.35"/>
<path d="M218.178 200.129L207.078 179.256L227.182 167.731L238.282 188.604L218.178 200.129ZM208.312 179.768L218.548 198.976L237.049 188.348L226.812 169.14L208.312 179.768Z" fill="white" fill-opacity="0.1"/>
<path d="M105.304 81.6863L86.0878 92.7092L96.7045 112.66L115.92 101.637L105.304 81.6863Z" fill="white" fill-opacity="0.4"/>
<path d="M96.5708 113.308L85.4707 92.4357L105.574 80.9109L116.674 101.784L96.5708 113.308ZM86.704 92.9479L96.9408 112.156L115.441 101.527L105.204 82.3195L86.704 92.9479Z" fill="white" fill-opacity="0.1"/>
<path d="M98.6522 163.803L79.4363 174.825L90.053 194.777L109.269 183.754L98.6522 163.803Z" fill="white" fill-opacity="0.4"/>
<path d="M89.9106 195.391L78.8105 174.518L98.9141 162.993L110.014 183.866L89.9106 195.391ZM80.0439 175.03L90.2806 194.238L108.781 183.61L98.5441 164.402L80.0439 175.03Z" fill="white" fill-opacity="0.1"/>
<path d="M109.364 183.734L90.1478 194.757L100.765 214.708L119.98 203.685L109.364 183.734Z" fill="white" fill-opacity="0.4"/>
<path d="M100.517 215.495L89.4174 194.622L109.521 183.097L120.621 203.97L100.517 215.495ZM90.774 195.006L101.011 214.214L119.511 203.586L109.274 184.378L90.774 195.006Z" fill="white" fill-opacity="0.1"/>
<path d="M88.0511 143.805L68.8352 154.828L79.4519 174.779L98.6679 163.756L88.0511 143.805Z" fill="white" fill-opacity="0.4"/>
<path d="M79.304 175.414L68.2039 154.542L88.3074 143.017L99.4075 163.89L79.304 175.414ZM69.4372 154.926L79.674 174.134L98.1741 163.505L87.9374 144.297L69.4372 154.926Z" fill="white" fill-opacity="0.1"/>
<path d="M163.02 48.5523L143.804 59.5752L154.421 79.5263L173.637 68.5034L163.02 48.5523Z" fill="white" fill-opacity="0.35"/>
<path d="M154.291 80.2708L143.191 59.3981L163.295 47.8733L174.395 68.746L154.291 80.2708ZM144.425 59.7822L154.661 78.9902L173.161 68.3618L162.925 49.1538L144.425 59.7822Z" fill="white" fill-opacity="0.1"/>
<path d="M130.568 223.726L111.352 234.749L121.969 254.7L141.185 243.677L130.568 223.726Z" fill="white" fill-opacity="0.35"/>
<path d="M121.854 255.448L110.754 234.575L130.858 223.05L141.958 243.923L121.854 255.448ZM111.988 234.959L122.224 254.167L140.725 243.539L130.488 224.331L111.988 234.959Z" fill="white" fill-opacity="0.1"/>
<path d="M119.967 203.729L100.751 214.752L111.367 234.703L130.583 223.68L119.967 203.729Z" fill="white" fill-opacity="0.35"/>
<path d="M111.248 235.471L100.147 214.599L120.251 203.074L131.351 223.946L111.248 235.471ZM101.381 214.983L111.618 234.191L130.118 223.562L119.881 204.354L101.381 214.983Z" fill="white" fill-opacity="0.1"/>
<path d="M77.4486 123.81L58.2327 134.833L68.8494 154.784L88.0653 143.761L77.4486 123.81Z" fill="white" fill-opacity="0.35"/>
<path d="M68.6971 155.438L57.597 134.565L77.7006 123.041L88.8007 143.913L68.6971 155.438ZM58.8304 134.949L69.0672 154.157L87.5673 143.529L77.3306 124.321L58.8304 134.949Z" fill="white" fill-opacity="0.1"/>
<path d="M124.562 70.678L105.346 81.7009L115.963 101.652L135.179 90.6291L124.562 70.678Z" fill="white" fill-opacity="0.4"/>
<path d="M115.811 102.296L104.711 81.4232L124.814 69.8984L135.914 90.7711L115.811 102.296ZM105.944 81.8074L116.181 101.015L134.681 90.387L124.444 71.179L105.944 81.8074Z" fill="white" fill-opacity="0.1"/>
<path d="M143.761 59.5589L124.545 70.5818L135.162 90.5329L154.378 79.51L143.761 59.5589Z" fill="white" fill-opacity="0.4"/>
<path d="M135.051 91.2832L123.951 70.4105L144.054 58.8857L155.155 79.7584L135.051 91.2832ZM125.184 70.7947L135.421 90.0027L153.921 79.3743L143.684 60.1663L125.184 70.7947Z" fill="white" fill-opacity="0.1"/>
<path d="M66.678 103.765L47.462 114.788L58.0788 134.739L77.2947 123.716L66.678 103.765Z" fill="white" fill-opacity="0.35"/>
<path d="M57.967 135.462L46.8669 114.589L66.9705 103.064L78.0706 123.937L57.967 135.462ZM48.2236 114.973L58.4604 134.181L76.9606 123.553L66.7238 104.345L48.2236 114.973Z" fill="white" fill-opacity="0.1"/>
<path d="M86.0445 92.6953L66.8286 103.718L77.4453 123.669L96.6613 112.646L86.0445 92.6953Z" fill="white" fill-opacity="0.35"/>
<path d="M77.2073 124.449L66.1072 103.576L86.2107 92.0515L97.3108 112.924L77.2073 124.449ZM67.4639 103.96L77.7006 123.168L96.2008 112.54L85.964 93.332L67.4639 103.96Z" fill="white" fill-opacity="0.1"/>
<path d="M139.224 192.723L120.008 203.746L130.625 223.697L149.841 212.674L139.224 192.723Z" fill="white" fill-opacity="0.35"/>
<path d="M130.488 224.331L119.388 203.458L139.491 191.933L150.591 212.806L130.488 224.331ZM120.621 203.97L130.858 223.178L149.358 212.55L139.121 193.342L120.621 203.97Z" fill="white" fill-opacity="0.1"/>
<path d="M135.165 90.6741L115.949 101.697L126.565 121.648L145.781 110.625L135.165 90.6741Z" fill="white" fill-opacity="0.4"/>
<path d="M126.418 122.272L115.318 101.4L135.421 89.8748L146.521 110.747L126.418 122.272ZM116.551 101.912L126.788 121.12L145.288 110.491L135.051 91.2833L116.551 101.912Z" fill="white" fill-opacity="0.1"/>
<path d="M126.509 121.676L107.293 132.699L117.91 152.65L137.126 141.627L126.509 121.676Z" fill="white" fill-opacity="0.35"/>
<path d="M117.784 153.389L106.684 132.516L126.788 120.992L137.888 141.864L117.784 153.389ZM107.918 132.901L118.154 152.109L136.654 141.48L126.418 122.272L107.918 132.901Z" fill="white" fill-opacity="0.1"/>
<path d="M137.218 141.611L118.003 152.634L128.619 172.585L147.835 161.562L137.218 141.611Z" fill="white" fill-opacity="0.35"/>
<path d="M128.391 173.366L117.291 152.493L137.394 140.968L148.495 161.841L128.391 173.366ZM118.648 152.877L128.884 172.085L147.385 161.457L137.148 142.249L118.648 152.877Z" fill="white" fill-opacity="0.1"/>
<path d="M145.767 110.668L126.551 121.691L137.168 141.642L156.384 130.619L145.767 110.668Z" fill="white" fill-opacity="0.35"/>
<path d="M137.024 142.249L125.924 121.376L146.028 109.851L157.128 130.724L137.024 142.249ZM127.158 121.888L137.394 141.096L155.895 130.468L145.658 111.26L127.158 121.888Z" fill="white" fill-opacity="0.1"/>
<path d="M158.483 181.713L139.267 192.736L149.884 212.687L169.1 201.664L158.483 181.713Z" fill="white" fill-opacity="0.4"/>
<path d="M149.728 213.318L138.628 192.445L158.731 180.921L169.831 201.793L149.728 213.318ZM139.861 192.83L150.098 212.038L168.598 201.409L158.361 182.201L139.861 192.83Z" fill="white" fill-opacity="0.1"/>
<path d="M165.133 99.6011L145.917 110.624L156.534 130.575L175.75 119.552L165.133 99.6011Z" fill="white" fill-opacity="0.35"/>
<path d="M156.265 131.236L145.165 110.363L165.268 98.8384L176.368 119.711L156.265 131.236ZM146.521 110.747L156.758 129.955L175.258 119.327L165.021 100.119L146.521 110.747Z" fill="white" fill-opacity="0.1"/>
<path d="M177.682 170.593L158.466 181.616L169.083 201.567L188.299 190.544L177.682 170.593Z" fill="white" fill-opacity="0.4"/>
<path d="M168.968 202.305L157.868 181.433L177.971 169.908L189.072 190.781L168.968 202.305ZM159.101 181.817L169.338 201.025L187.838 190.396L177.601 171.188L159.101 181.817Z" fill="white" fill-opacity="0.1"/>
<path d="M147.881 161.717L128.665 172.74L139.282 192.691L158.498 181.668L147.881 161.717Z" fill="white" fill-opacity="0.35"/>
<path d="M139.121 193.342L128.021 172.469L148.125 160.944L159.225 181.817L139.121 193.342ZM129.254 172.853L139.491 192.061L157.991 181.433L147.755 162.225L129.254 172.853Z" fill="white" fill-opacity="0.1"/>
<path d="M175.736 119.595L156.52 130.618L167.137 150.569L186.353 139.546L175.736 119.595Z" fill="white" fill-opacity="0.35"/>
<path d="M166.995 151.212L155.895 130.339L175.998 118.815L187.098 139.687L166.995 151.212ZM157.128 130.852L167.365 150.06L185.865 139.431L175.628 120.223L157.128 130.852Z" fill="white" fill-opacity="0.1"/>
<path d="M156.477 130.604L137.261 141.627L147.878 161.578L167.094 150.555L156.477 130.604Z" fill="white" fill-opacity="0.35"/>
<path d="M147.755 162.353L136.654 141.48L156.758 129.955L167.858 150.828L147.755 162.353ZM137.888 141.864L148.125 161.072L166.625 150.444L156.388 131.236L137.888 141.864Z" fill="white" fill-opacity="0.1"/>
<path d="M167.079 150.6L147.863 161.623L158.48 181.574L177.696 170.551L167.079 150.6Z" fill="white" fill-opacity="0.35"/>
<path d="M158.361 182.329L147.261 161.456L167.365 149.932L178.465 170.804L158.361 182.329ZM148.495 161.841L158.731 181.049L177.232 170.42L166.995 151.212L148.495 161.841Z" fill="white" fill-opacity="0.1"/>
<path d="M186.338 139.589L167.123 150.612L177.739 170.563L196.955 159.541L186.338 139.589Z" fill="white" fill-opacity="0.35"/>
<path d="M177.602 171.189L166.501 150.316L186.605 138.791L197.705 159.664L177.602 171.189ZM167.735 150.828L177.972 170.036L196.472 159.408L186.235 140.2L167.735 150.828Z" fill="white" fill-opacity="0.1"/>
<path d="M194.994 108.587L175.779 119.61L186.395 139.561L205.611 128.538L194.994 108.587Z" fill="white" fill-opacity="0.4"/>
<path d="M186.235 140.2L175.135 119.327L195.238 107.802L206.338 128.675L186.235 140.2ZM176.368 119.711L186.605 138.919L205.105 128.291L194.868 109.083L176.368 119.711Z" fill="white" fill-opacity="0.1"/>
<path d="M115.906 101.682L96.6902 112.705L107.307 132.656L126.523 121.633L115.906 101.682Z" fill="white" fill-opacity="0.4"/>
<path d="M107.177 133.413L96.0774 112.54L116.181 101.015L127.281 121.888L107.177 133.413ZM97.3107 112.924L107.547 132.132L126.048 121.504L115.811 102.296L97.3107 112.924Z" fill="white" fill-opacity="0.1"/>
<path d="M141.172 243.719L121.956 254.742L132.573 274.693L151.788 263.67L141.172 243.719Z" fill="white" fill-opacity="0.35"/>
<path d="M132.461 275.424L121.361 254.551L141.464 243.026L152.565 263.899L132.461 275.424ZM122.594 254.935L132.831 274.143L151.331 263.515L141.094 244.307L122.594 254.935Z" fill="white" fill-opacity="0.1"/>
<path d="M96.6471 112.691L77.4312 123.714L88.0479 143.665L107.264 132.642L96.6471 112.691Z" fill="white" fill-opacity="0.35"/>
<path d="M87.9374 144.425L76.8373 123.553L96.9408 112.028L108.041 132.901L87.9374 144.425ZM78.0706 123.937L88.3074 143.145L106.808 132.516L96.5708 113.308L78.0706 123.937Z" fill="white" fill-opacity="0.1"/>
<path d="M154.423 79.6646L135.207 90.6875L145.824 110.639L165.04 99.6157L154.423 79.6646Z" fill="white" fill-opacity="0.4"/>
<path d="M145.658 111.26L134.558 90.3869L154.661 78.8621L165.761 99.7347L145.658 111.26ZM135.791 90.771L146.028 109.979L164.528 99.3506L154.291 80.1426L135.791 90.771Z" fill="white" fill-opacity="0.1"/>
<path d="M117.912 152.792L98.6964 163.815L109.313 183.766L128.529 172.743L117.912 152.792Z" fill="white" fill-opacity="0.4"/>
<path d="M109.151 184.378L98.0508 163.505L118.154 151.98L129.254 172.853L109.151 184.378ZM99.2841 163.889L109.521 183.097L128.021 172.469L117.784 153.261L99.2841 163.889Z" fill="white" fill-opacity="0.1"/>
<path d="M196.941 159.586L177.725 170.609L188.341 190.56L207.557 179.537L196.941 159.586Z" fill="white" fill-opacity="0.4"/>
<path d="M188.208 191.293L177.108 170.42L197.212 158.896L208.312 179.768L188.208 191.293ZM178.341 170.804L188.578 190.012L207.078 179.384L196.842 160.176L178.341 170.804Z" fill="white" fill-opacity="0.1"/>
<path d="M107.249 132.688L88.0327 143.71L98.6494 163.662L117.865 152.639L107.249 132.688Z" fill="white" fill-opacity="0.4"/>
<path d="M98.5441 164.402L87.444 143.529L107.547 132.004L118.648 152.877L98.5441 164.402ZM88.6773 143.913L98.9141 163.121L117.414 152.493L107.177 133.285L88.6773 143.913Z" fill="white" fill-opacity="0.1"/>
<path d="M205.597 128.584L186.381 139.606L196.998 159.558L216.214 148.535L205.597 128.584Z" fill="white" fill-opacity="0.4"/>
<path d="M196.842 160.176L185.742 139.303L205.845 127.779L216.945 148.651L196.842 160.176ZM186.975 139.688L197.212 158.896L215.712 148.267L205.475 129.059L186.975 139.688Z" fill="white" fill-opacity="0.1"/>
<path d="M216.307 148.518L197.091 159.541L207.708 179.492L226.924 168.469L216.307 148.518Z" fill="white" fill-opacity="0.35"/>
<path d="M207.448 180.152L196.348 159.28L216.452 147.755L227.552 168.628L207.448 180.152ZM197.705 159.792L207.942 179L226.442 168.371L216.205 149.163L197.705 159.792Z" fill="white" fill-opacity="0.1"/>
<path d="M173.622 68.5442L154.406 79.5671L165.023 99.5183L184.239 88.4953L173.622 68.5442Z" fill="white" fill-opacity="0.35"/>
<path d="M164.898 100.247L153.798 79.3744L173.901 67.8496L185.002 88.7223L164.898 100.247ZM155.155 79.7586L165.391 98.9666L183.892 88.3381L173.655 69.1301L155.155 79.7586Z" fill="white" fill-opacity="0.1"/>
<path d="M184.333 88.4793L165.117 99.5022L175.734 119.453L194.949 108.43L184.333 88.4793Z" fill="white" fill-opacity="0.4"/>
<path d="M175.628 120.223L164.528 99.3507L184.632 87.8259L195.732 108.699L175.628 120.223ZM165.761 99.7349L175.998 118.943L194.498 108.314L184.262 89.1065L165.761 99.7349Z" fill="white" fill-opacity="0.1"/>
<path d="M128.622 172.727L109.406 183.75L120.022 203.701L139.238 192.678L128.622 172.727Z" fill="white" fill-opacity="0.4"/>
<path d="M119.758 204.354L108.657 183.482L128.761 171.957L139.861 192.829L119.758 204.354ZM110.014 183.866L120.251 203.074L138.751 192.445L128.514 173.237L110.014 183.866Z" fill="white" fill-opacity="0.1"/>
<path d="M182.279 37.542L163.063 48.5649L173.679 68.5161L192.895 57.4931L182.279 37.542Z" fill="white" fill-opacity="0.35"/>
<path d="M173.531 69.1302L162.431 48.2575L182.535 36.7327L193.635 57.6054L173.531 69.1302ZM163.665 48.7697L173.902 67.9777L192.402 57.3492L182.165 38.1413L163.665 48.7697Z" fill="white" fill-opacity="0.1"/>
<path d="M111.37 234.844L92.1542 245.867L102.771 265.818L121.987 254.795L111.37 234.844Z" fill="white" fill-opacity="0.35"/>
<path d="M102.614 266.46L91.514 245.588L111.618 234.063L122.718 254.935L102.614 266.46ZM92.7474 245.972L102.984 265.18L121.484 254.551L111.248 235.343L92.7474 245.972Z" fill="white" fill-opacity="0.1"/>
<path d="M68.7916 154.814L49.5757 165.837L60.1924 185.788L79.4083 174.765L68.7916 154.814Z" fill="white" fill-opacity="0.4"/>
<path d="M60.0637 186.427L48.9636 165.554L69.0671 154.029L80.1672 174.902L60.0637 186.427ZM50.197 166.066L60.4337 185.274L78.9339 174.646L68.6971 155.438L50.197 166.066Z" fill="white" fill-opacity="0.1"/>
<path d="M89.9956 194.806L70.7797 205.829L81.3964 225.78L100.612 214.757L89.9956 194.806Z" fill="white" fill-opacity="0.4"/>
<path d="M81.2772 226.508L70.1771 205.635L90.2806 194.11L101.381 214.983L81.2772 226.508ZM71.4105 206.019L81.6472 225.227L100.147 214.599L89.9106 195.391L71.4105 206.019Z" fill="white" fill-opacity="0.1"/>
<path d="M79.3951 174.808L60.1792 185.831L70.7959 205.782L90.0119 194.759L79.3951 174.808Z" fill="white" fill-opacity="0.4"/>
<path d="M70.6705 206.531L59.5704 185.659L79.674 174.134L90.7741 195.006L70.6705 206.531ZM60.8038 186.043L71.0405 205.251L89.5407 194.622L79.304 175.414L60.8038 186.043Z" fill="white" fill-opacity="0.1"/>
<path d="M100.706 214.74L81.4899 225.763L92.1066 245.714L111.323 234.691L100.706 214.74Z" fill="white" fill-opacity="0.35"/>
<path d="M91.884 246.484L80.7839 225.611L100.887 214.086L111.988 234.959L91.884 246.484ZM82.1406 225.995L92.3774 245.203L110.878 234.575L100.641 215.367L82.1406 225.995Z" fill="white" fill-opacity="0.1"/>
<path d="M121.972 254.84L102.756 265.863L113.373 285.814L132.589 274.791L121.972 254.84Z" fill="white" fill-opacity="0.35"/>
<path d="M113.221 286.437L102.121 265.564L122.224 254.039L133.324 274.912L113.221 286.437ZM103.354 265.948L113.591 285.156L132.091 274.528L121.854 255.32L103.354 265.948Z" fill="white" fill-opacity="0.1"/>
<path d="M179.795 221.644L160.579 232.667L171.196 252.618L190.412 241.595L179.795 221.644Z" fill="white" fill-opacity="0.4"/>
<path d="M170.941 253.271L159.841 232.398L179.945 220.873L191.045 241.746L170.941 253.271ZM161.198 232.91L171.435 252.118L189.935 241.49L179.698 222.282L161.198 232.91Z" fill="white" fill-opacity="0.1"/>
<path d="M254.765 126.389L235.549 137.412L246.166 157.363L265.382 146.34L254.765 126.389Z" fill="white" fill-opacity="0.35"/>
<path d="M246.052 158.127L234.952 137.254L255.056 125.729L266.156 146.602L246.052 158.127ZM236.185 137.638L246.422 156.846L264.922 146.218L254.686 127.01L236.185 137.638Z" fill="white" fill-opacity="0.1"/>
<path d="M244.163 106.393L224.947 117.416L235.563 137.367L254.779 126.344L244.163 106.393Z" fill="white" fill-opacity="0.4"/>
<path d="M235.322 138.151L224.222 117.278L244.325 105.753L255.426 126.626L235.322 138.151ZM225.579 117.662L235.815 136.87L254.316 126.242L244.079 107.034L225.579 117.662Z" fill="white" fill-opacity="0.1"/>
<path d="M212.248 46.47L193.032 57.4929L203.649 77.4441L222.865 66.4211L212.248 46.47Z" fill="white" fill-opacity="0.35"/>
<path d="M203.502 78.0938L192.402 57.2211L212.505 45.6963L223.605 66.569L203.502 78.0938ZM193.635 57.6052L203.872 76.8132L222.372 66.1848L212.135 46.9768L193.635 57.6052Z" fill="white" fill-opacity="0.1"/>
<path d="M233.453 86.4617L214.237 97.4846L224.853 117.436L244.069 106.413L233.453 86.4617Z" fill="white" fill-opacity="0.4"/>
<path d="M224.715 118.046L213.615 97.1737L233.719 85.6489L244.819 106.522L224.715 118.046ZM214.848 97.6859L225.085 116.894L243.585 106.266L233.349 87.0575L214.848 97.6859Z" fill="white" fill-opacity="0.1"/>
<path d="M222.85 66.4632L203.634 77.4861L214.251 97.4372L233.467 86.4143L222.85 66.4632Z" fill="white" fill-opacity="0.4"/>
<path d="M214.109 98.0701L203.008 77.1974L223.112 65.6726L234.212 86.5453L214.109 98.0701ZM204.242 77.7096L214.479 96.9176L232.979 86.2892L222.742 67.0812L204.242 77.7096Z" fill="white" fill-opacity="0.1"/>
<path d="M276.029 166.494L256.813 177.517L267.43 197.468L286.646 186.445L276.029 166.494Z" fill="white" fill-opacity="0.35"/>
<path d="M267.266 198.08L256.166 177.207L276.269 165.682L287.369 186.555L267.266 198.08ZM257.399 177.591L267.636 196.799L286.136 186.171L275.899 166.963L257.399 177.591Z" fill="white" fill-opacity="0.1"/>
<path d="M58.1888 134.819L38.9729 145.842L49.5896 165.793L68.8056 154.77L58.1888 134.819Z" fill="white" fill-opacity="0.35"/>
<path d="M49.3336 166.45L38.2335 145.578L58.337 134.053L69.4371 154.926L49.3336 166.45ZM39.5902 146.09L49.827 165.298L68.3271 154.67L58.0904 135.462L39.5902 146.09Z" fill="white" fill-opacity="0.1"/>
<path d="M160.537 232.651L141.321 243.674L151.938 263.625L171.154 252.603L160.537 232.651Z" fill="white" fill-opacity="0.35"/>
<path d="M151.701 264.411L140.601 243.539L160.705 232.014L171.805 252.887L151.701 264.411ZM141.958 243.923L152.195 263.131L170.695 252.502L160.458 233.294L141.958 243.923Z" fill="white" fill-opacity="0.1"/>
<path d="M256.771 177.499L237.555 188.521L248.171 208.473L267.387 197.45L256.771 177.499Z" fill="white" fill-opacity="0.35"/>
<path d="M248.026 209.092L236.925 188.22L257.029 176.695L268.129 197.568L248.026 209.092ZM238.159 188.732L248.396 207.94L266.896 197.311L256.659 178.103L238.159 188.732Z" fill="white" fill-opacity="0.1"/>
<path d="M199.055 210.634L179.839 221.657L190.455 241.608L209.671 230.585L199.055 210.634Z" fill="white" fill-opacity="0.4"/>
<path d="M190.305 242.258L179.205 221.385L199.308 209.861L210.408 230.733L190.305 242.258ZM180.438 221.77L190.675 240.978L209.175 230.349L198.938 211.141L180.438 221.77Z" fill="white" fill-opacity="0.1"/>
<path d="M218.253 199.516L199.037 210.539L209.654 230.49L228.87 219.467L218.253 199.516Z" fill="white" fill-opacity="0.4"/>
<path d="M209.545 231.246L198.445 210.373L218.549 198.848L229.649 219.721L209.545 231.246ZM199.678 210.757L209.915 229.965L228.415 219.337L218.179 200.129L199.678 210.757Z" fill="white" fill-opacity="0.1"/>
<path d="M237.512 188.506L218.296 199.529L228.913 219.48L248.129 208.457L237.512 188.506Z" fill="white" fill-opacity="0.35"/>
<path d="M228.785 220.233L217.685 199.36L237.789 187.835L248.889 208.708L228.785 220.233ZM218.919 199.744L229.155 218.952L247.655 208.324L237.419 189.116L218.919 199.744Z" fill="white" fill-opacity="0.1"/>
<path d="M265.367 146.383L246.151 157.406L256.768 177.357L275.984 166.334L265.367 146.383Z" fill="white" fill-opacity="0.35"/>
<path d="M256.659 178.103L245.559 157.231L265.662 145.706L276.762 166.578L256.659 178.103ZM246.792 157.615L257.029 176.823L275.529 166.194L265.292 146.986L246.792 157.615Z" fill="white" fill-opacity="0.1"/>
<path d="M75.3351 72.7598L56.1191 83.7827L66.7359 103.734L85.9518 92.7109L75.3351 72.7598Z" fill="white" fill-opacity="0.35"/>
<path d="M66.6005 104.473L55.5004 83.6L75.6039 72.0752L86.704 92.9479L66.6005 104.473ZM56.7337 83.9842L66.9705 103.192L85.4706 92.5637L75.2339 73.3557L56.7337 83.9842Z" fill="white" fill-opacity="0.1"/>
<path d="M56.076 83.7688L36.8601 94.7917L47.4768 114.743L66.6928 103.72L56.076 83.7688Z" fill="white" fill-opacity="0.35"/>
<path d="M47.3604 115.485L36.2603 94.6127L56.3638 83.0879L67.4639 103.961L47.3604 115.485ZM37.4936 94.9969L47.7304 114.205L66.2305 103.576L55.9938 84.3684L37.4936 94.9969Z" fill="white" fill-opacity="0.1"/>
<path d="M201.645 26.4732L182.429 37.4961L193.046 57.4472L212.262 46.4243L201.645 26.4732Z" fill="white" fill-opacity="0.35"/>
<path d="M192.772 58.1175L181.672 37.2448L201.775 25.72L212.875 46.5927L192.772 58.1175ZM183.028 37.6289L193.265 56.8369L211.765 46.2085L201.528 27.0005L183.028 37.6289Z" fill="white" fill-opacity="0.1"/>
<path d="M94.5936 61.7522L75.3777 72.7751L85.9944 92.7263L105.21 81.7034L94.5936 61.7522Z" fill="white" fill-opacity="0.4"/>
<path d="M85.8407 93.3321L74.7406 72.4594L94.8441 60.9346L105.944 81.8073L85.8407 93.3321ZM76.0973 72.8435L86.334 92.0515L104.834 81.4231L94.5974 62.2151L76.0973 72.8435Z" fill="white" fill-opacity="0.1"/>
<path d="M36.8767 94.8889L17.6608 105.912L28.2775 125.863L47.4934 114.84L36.8767 94.8889Z" fill="white" fill-opacity="0.35"/>
<path d="M28.1201 126.498L17.02 105.625L37.1235 94.1003L48.2236 114.973L28.1201 126.498ZM18.2534 106.009L28.4901 125.217L46.9903 114.589L36.7535 95.3809L18.2534 106.009Z" fill="white" fill-opacity="0.1"/>
<path d="M47.4798 114.884L28.2639 125.907L38.8806 145.858L58.0966 134.835L47.4798 114.884Z" fill="white" fill-opacity="0.35"/>
<path d="M38.7269 146.474L27.6268 125.601L47.7304 114.077L58.8305 134.949L38.7269 146.474ZM28.8602 125.986L39.0969 145.194L57.5971 134.565L47.3603 115.357L28.8602 125.986Z" fill="white" fill-opacity="0.1"/>
<path d="M190.876 6.42775L171.66 17.4507L182.277 37.4018L201.492 26.3789L190.876 6.42775Z" fill="white" fill-opacity="0.35"/>
<path d="M182.165 38.1411L171.065 17.2685L191.168 5.74365L202.268 26.6163L182.165 38.1411ZM172.298 17.6526L182.535 36.8606L201.035 26.2322L190.798 7.02419L172.298 17.6526Z" fill="white" fill-opacity="0.1"/>
<path d="M171.677 17.5479L152.461 28.5708L163.077 48.5219L182.293 37.499L171.677 17.5479Z" fill="white" fill-opacity="0.35"/>
<path d="M162.925 49.1538L151.825 28.2811L171.928 16.7563L183.028 37.629L162.925 49.1538ZM153.058 28.6653L163.295 47.8733L181.795 37.2449L171.558 18.0369L153.058 28.6653Z" fill="white" fill-opacity="0.1"/>
<path d="M133.159 39.5625L113.943 50.5854L124.56 70.5366L143.776 59.5137L133.159 39.5625Z" fill="white" fill-opacity="0.4"/>
<path d="M124.444 71.3069L113.344 50.4342L133.448 38.9094L144.548 59.7821L124.444 71.3069ZM114.578 50.8184L124.814 70.0264L143.315 59.398L133.078 40.19L114.578 50.8184Z" fill="white" fill-opacity="0.1"/>
<path d="M152.417 28.5535L133.201 39.5764L143.818 59.5276L163.034 48.5046L152.417 28.5535Z" fill="white" fill-opacity="0.35"/>
<path d="M143.685 60.1663L132.584 39.2936L152.688 27.7688L163.788 48.6415L143.685 60.1663ZM133.818 39.8058L144.055 59.0138L162.555 48.3854L152.318 29.1774L133.818 39.8058Z" fill="white" fill-opacity="0.1"/>
<path d="M113.96 50.6834L94.7441 61.7063L105.361 81.6574L124.577 70.6345L113.96 50.6834Z" fill="white" fill-opacity="0.4"/>
<path d="M105.081 82.3196L93.9807 61.4469L114.084 49.9221L125.184 70.7948L105.081 82.3196ZM95.3374 61.8311L105.574 81.0391L124.074 70.4107L113.838 51.2027L95.3374 61.8311Z" fill="white" fill-opacity="0.1"/>
<path d="M77.074 71.7806L73.8353 73.6384L169.624 253.647L172.863 251.789L77.074 71.7806Z" fill="white" fill-opacity="0.1"/>
<path d="M134.79 38.6444L131.552 40.5022L227.341 220.511L230.579 218.653L134.79 38.6444Z" fill="white" fill-opacity="0.1"/>
<path d="M222.059 64.6998L48.6835 164.133L50.4724 167.496L223.848 68.0623L222.059 64.6998Z" fill="white" fill-opacity="0.1"/>
<path d="M254.041 124.726L80.6663 224.18L82.4556 227.542L255.831 128.088L254.041 124.726Z" fill="white" fill-opacity="0.1"/>
<path d="M112.728 288.357L15.17 105.113L191.662 3.82275L289.219 187.067L112.728 288.357ZM20.1034 106.65L114.084 283.235L284.163 185.658L190.305 9.07294L20.1034 106.65Z" fill="white" fill-opacity="0.1"/>
<path d="M296.496 352C302.416 350.079 307.966 346.75 313.023 343.036C318.943 338.682 324.37 333.816 329.673 328.822C334.853 323.956 340.156 319.218 344.966 313.968C351.01 307.437 356.437 300.266 361 292.583C356.56 287.717 352.243 282.723 347.926 277.729C343.486 272.607 339.17 267.356 334.73 262.234C330.29 257.112 325.726 252.118 321.41 246.868C319.683 244.691 318.079 242.514 316.353 240.337C320.67 234.703 322.273 226.892 322.766 219.849C323.383 209.476 321.656 199.104 318.45 189.372C315.119 179 310.186 169.268 304.636 160.048C299.333 151.212 293.413 143.145 286.013 136.23C278.242 128.931 268.869 122.4 258.756 119.455C258.262 118.943 257.769 118.559 257.276 118.046C254.809 115.357 252.219 112.668 248.889 111.131C245.929 109.723 242.599 109.211 239.269 109.083C235.815 108.826 232.362 109.211 228.909 109.211C227.305 108.314 225.579 107.674 223.605 107.546C218.055 107.29 212.752 110.875 208.312 113.821C205.475 115.741 202.762 117.662 199.802 119.327C196.842 121.12 193.882 122.784 190.922 124.577C188.085 126.37 185.248 128.034 182.288 129.699C179.945 130.98 177.478 132.004 175.382 133.669C173.285 135.333 171.928 137.767 170.818 140.2C169.585 143.017 168.475 145.834 167.118 148.523C165.145 152.365 161.445 155.438 160.335 159.792C159.101 164.786 163.048 168.499 167.488 169.268C171.065 169.908 175.505 169.14 177.848 166.066C177.725 166.835 177.725 167.603 177.478 168.371C177.108 169.78 176.615 171.06 175.998 172.469C174.888 175.286 173.655 178.103 173.285 181.049C172.915 183.866 173.161 186.555 175.135 188.732C177.355 191.165 180.315 191.421 183.028 189.884C183.892 189.372 184.632 188.732 185.372 187.963C185.372 188.348 185.372 188.732 185.372 188.988C185.495 190.524 185.618 192.061 185.988 193.598C186.605 196.415 187.592 200 189.935 201.921C190.552 202.433 191.662 202.946 192.648 202.818C192.772 203.074 192.772 203.33 192.895 203.586C194.375 208.196 196.965 212.422 199.308 216.647C201.775 221.001 204.365 225.227 206.585 229.581C208.558 233.55 210.409 237.52 212.752 241.362C214.972 245.075 217.562 248.533 220.769 251.35C224.099 254.295 227.675 256.856 231.375 259.161C235.075 261.466 238.899 263.515 242.969 265.308C247.039 267.1 251.356 268.509 255.549 270.046C256.042 270.302 256.536 270.43 257.029 270.686C258.632 273.887 260.482 276.96 262.209 280.034C265.786 286.436 268.746 293.095 271.706 299.754C277.749 313.2 284.409 326.389 290.453 339.835C292.303 343.548 294.276 347.902 296.496 352Z" fill="url(#paint0_linear_39_15311)"/>
<path opacity="0.56" d="M227.675 154.67C225.455 151.468 223.482 148.011 220.892 144.938C218.672 142.377 215.959 139.944 212.629 139.431C207.202 138.791 202.145 142.761 197.458 144.938C194.992 146.09 192.402 146.858 189.812 146.602C188.208 146.474 186.728 145.834 185.248 145.066C185.495 145.322 185.742 145.45 185.988 145.706C188.208 148.011 189.935 150.572 191.785 153.133C193.882 156.078 196.348 158.767 198.692 161.585C200.788 164.018 202.638 166.707 204.488 169.396C207.449 173.622 210.655 177.719 214.232 181.433C217.562 184.89 221.385 187.964 225.702 189.884C227.429 190.525 229.279 191.037 231.252 191.037C232.732 191.037 234.212 190.909 235.569 190.14C236.309 189.628 237.049 188.988 237.665 188.348C237.912 187.707 238.159 186.939 238.405 186.299C239.392 182.969 239.639 179.256 239.392 175.798C238.652 167.475 232.115 161.2 227.675 154.67Z" fill="#9BACEC"/>
<mask id="mask0_39_15311" style="mask-type:luminance" maskUnits="userSpaceOnUse" x="116" y="130" width="235" height="76">
<path d="M175.875 160.176C175.875 160.176 169.955 153.261 174.025 147.883C178.095 142.505 184.385 143.529 192.155 149.932C200.048 156.334 202.392 163.889 203.995 166.322C205.475 168.755 336.95 205.507 336.95 205.507C336.95 205.507 352.736 201.153 350.64 187.835C348.666 174.518 321.779 174.39 318.203 171.701C314.503 169.012 147.878 130.468 147.878 130.468L116.058 132.772L153.181 160.56L175.875 160.176Z" fill="white"/>
</mask>
<g mask="url(#mask0_39_15311)">
<path d="M138.751 135.59C142.328 135.974 145.781 136.614 149.358 136.998C154.661 137.767 160.088 138.535 165.391 139.559C165.391 139.047 165.268 138.663 165.145 138.151L149.851 134.309L134.928 135.077C136.161 135.334 137.518 135.462 138.751 135.59Z" fill="#F6A873"/>
<path d="M164.035 151.34C161.691 150.7 159.471 149.932 157.128 149.291C153.921 148.267 150.715 147.242 147.631 145.962C144.425 144.681 141.341 143.273 138.258 141.864C133.448 139.687 128.638 137.638 123.704 135.846L146.151 150.572L162.431 154.67C163.171 153.517 163.665 152.493 164.035 151.34Z" fill="#F6A873"/>
<path d="M165.515 143.145C165.515 141.48 165.391 139.815 165.145 138.279L149.851 134.437L123.704 135.846L146.275 150.572L162.555 154.67C164.651 151.212 165.515 147.115 165.515 143.145Z" fill="#F6A873"/>
<path d="M136.099 135L123.551 135.727L134.462 143C134.053 140.236 134.598 137.182 136.099 135Z" fill="#231F20"/>
<path d="M146.151 145.066L337.073 193.598C337.32 192.701 337.443 191.805 337.566 191.037C337.813 189.756 338.06 188.476 338.183 187.067L145.288 138.023C146.275 138.535 147.385 139.047 148.248 139.815C151.578 142.889 148.001 145.066 146.151 145.066Z" fill="#D58121"/>
<path d="M338.142 186.966C338.265 185.557 338.388 184.149 338.635 182.868V182.74C338.635 182.484 338.635 182.228 338.758 182.1L149.687 134.464C150.673 135.232 147.343 137.922 145 138.05C145 138.05 145 138.05 145.123 138.05L338.018 187.094C338.142 187.094 338.142 186.966 338.142 186.966Z" fill="#E6963A"/>
<path d="M336.703 195.006C336.826 194.494 336.95 194.11 337.073 193.598L146.151 145.066C146.151 145.066 146.151 145.066 146.028 145.066C147.508 146.09 148.001 150.316 147.015 150.572L335.346 198.464C335.593 198.08 335.84 197.824 335.963 197.439C336.21 196.671 336.58 195.903 336.703 195.006Z" fill="#CC7511"/>
<path d="M343.486 191.549C342.623 196.159 339.046 199.232 335.47 198.592C331.893 197.823 329.796 193.598 330.66 188.988C331.523 184.378 335.1 181.305 338.676 181.945C342.253 182.713 344.35 187.067 343.486 191.549Z" fill="#E3C3AC"/>
<path d="M341.143 190.909C340.65 193.342 338.8 195.134 336.826 194.622C334.976 194.238 333.743 191.933 334.236 189.372C334.73 186.939 336.58 185.146 338.553 185.658C340.403 186.043 341.636 188.347 341.143 190.909Z" fill="#E3C3AC"/>
<path d="M340.403 190.781C340.033 192.83 338.43 194.11 336.95 193.854C335.47 193.598 334.483 191.677 334.853 189.628C335.223 187.579 336.826 186.299 338.306 186.555C339.91 186.939 340.773 188.732 340.403 190.781Z" fill="#241A12"/>
</g>
<path d="M49.5803 197.311C46.867 187.963 43.7836 178.103 40.5769 167.731C39.5902 170.292 38.2336 171.957 36.8769 172.981L34.6569 167.347C36.5069 165.17 37.6169 162.609 37.9869 159.664L43.7836 157.103C46.6203 167.475 49.2103 176.951 51.677 185.658C52.6637 189.244 53.6504 192.573 54.637 195.903L49.5803 197.311Z" fill="white"/>
<path d="M13.0734 148.395L9.37335 139.047C15.9101 126.114 19.2401 117.918 19.2401 114.333C19.2401 112.156 18.9934 110.235 18.5001 108.442C18.1301 107.29 17.7601 106.266 17.1434 105.369C15.6634 102.936 13.9367 101.912 12.21 102.296L11.7167 102.424C10.2367 102.936 9.12668 103.833 8.51001 105.241C8.01667 106.522 8.26334 108.699 9.25002 111.9C9.49669 112.668 9.74335 113.565 10.1134 114.589L1.84995 116.254C0.246602 111.003 -0.246736 106.778 0.493271 103.448C1.23328 100.119 2.83663 97.6859 5.67332 96.0213C7.15333 95.1249 8.51001 94.4846 9.86669 93.9724C11.1 93.5882 12.3334 93.3321 13.4434 93.3321C15.9101 93.2041 18.0068 93.9724 19.8568 95.509C21.7068 97.0457 23.4335 99.2226 24.7902 102.168C25.5302 103.704 26.1468 105.241 26.6402 106.778C27.1335 108.186 27.3802 109.723 27.6269 111.132C27.9969 114.205 27.5035 117.918 25.7768 122.272C24.1735 126.626 21.4601 132.388 17.7601 139.431C19.7334 138.791 21.4601 138.279 23.1868 137.639C28.2435 135.974 32.4369 134.437 35.5203 133.029L38.2336 141.608L13.0734 148.395Z" fill="white"/>
<path d="M94.8441 25.7199C96.5708 24.0552 98.6675 23.1588 101.011 22.9027C101.628 22.9027 102.244 22.7747 102.738 22.7747C104.464 22.7747 105.944 23.0308 107.424 23.671C109.398 24.4393 110.754 26.104 111.494 28.409C112.111 30.0737 112.358 31.8664 112.358 33.5311C112.358 34.1714 112.358 34.9397 112.234 35.58C111.864 38.013 110.261 39.9338 107.301 41.2143C109.891 41.9827 111.618 43.3912 112.481 45.184C113.221 47.1048 113.714 48.7695 113.714 50.4342C113.714 52.0989 113.468 53.7636 112.974 55.3002C112.481 56.8368 111.371 58.3735 109.398 59.9101C107.424 61.4468 105.081 62.3431 102.368 62.3431C102.244 62.3431 102.121 62.3431 101.874 62.3431C99.2842 62.3431 96.9408 61.3187 94.8441 59.3979C92.6241 57.4771 91.6375 54.2758 91.6375 49.922V49.1536L97.6808 48.6414C98.0508 52.7391 99.4075 54.916 101.874 55.0441C102.121 55.0441 102.491 55.0441 102.738 55.0441C104.711 55.0441 106.191 54.4038 106.931 53.2513C107.424 52.6111 107.548 51.7147 107.548 50.8183C107.548 49.922 107.301 48.8975 106.931 47.7451C106.068 45.6962 103.601 44.4157 99.2842 44.1596L98.7908 39.0374C100.024 38.9094 101.381 38.5252 102.861 38.013C104.341 37.5008 105.328 36.4764 105.698 34.9397C105.821 34.4275 105.944 33.9153 105.944 33.4031C105.944 32.5067 105.698 31.4823 105.204 30.5859C104.588 29.6895 103.724 29.1773 102.491 29.1773C101.998 29.1773 101.381 29.3054 100.764 29.4334C98.9142 29.9456 97.9275 31.4823 97.9275 34.0433C97.9275 34.4275 97.9275 34.8117 97.9275 35.3239L91.7608 35.0678C92.1308 30.4579 92.9941 27.2565 94.8441 25.7199Z" fill="white"/>
<path d="M43.7837 37.6289L45.8804 29.8176L36.7537 27.1285L37.617 22.5186C42.5504 18.5489 47.1138 14.4512 51.5538 10.0974L55.5005 11.3779L51.1838 26.4882L54.3905 27.5127L53.0338 32.2506L49.5804 31.0982L47.3604 39.0375L43.7837 37.6289ZM47.3604 25.0796L49.8271 16.372C47.6071 18.4209 45.1404 20.8539 42.1804 23.415L47.3604 25.0796Z" fill="white"/>
<path d="M57.2272 98.7104L63.1472 97.5579C63.2706 100.247 64.0106 102.04 65.2439 103.064C66.1073 103.833 67.0939 104.217 68.0806 104.217C68.4506 104.217 68.8206 104.217 69.1906 104.089C70.5473 103.704 71.534 103.064 72.274 102.168C73.014 101.271 73.2607 99.991 73.2607 98.0702V97.5579C73.1373 95.5091 72.274 93.7163 70.424 92.4358C69.684 91.9236 68.9439 91.6675 68.0806 91.6675C66.8473 91.6675 65.4906 92.3078 64.1339 93.5883L57.9672 93.0761L58.8305 71.5631L77.3307 70.9229L77.454 78.7341H64.6272L64.3806 87.9539C66.2306 86.6734 67.9573 86.0331 69.8073 86.0331C70.5473 86.0331 71.2873 86.1612 72.0273 86.2892C74.494 87.0576 76.344 88.21 77.5774 90.0028C78.6874 91.7955 79.4274 93.4602 79.7974 95.253C79.9207 95.8932 79.9207 96.6616 79.9207 97.4299C79.9207 98.7104 79.7974 99.9909 79.4274 101.528C78.934 103.961 78.0707 105.881 77.084 107.162C75.974 108.571 74.3707 109.467 72.274 110.235C70.794 110.747 69.3139 111.004 67.8339 111.004C67.0939 111.004 66.3539 111.004 65.6139 110.875C63.2706 110.491 61.2972 109.339 59.8172 107.29C58.2138 105.369 57.3505 102.424 57.2272 98.7104Z" fill="white"/>
<path d="M91.7608 205.123H92.0074C93.6108 205.123 95.0908 205.635 96.2008 206.531C97.3108 207.556 98.0508 208.836 98.2975 210.373C98.4208 211.141 98.4208 211.781 98.4208 212.422C98.4208 213.19 98.2975 213.83 98.1741 214.471C97.9275 215.623 97.4341 216.647 96.8175 217.8C96.2008 218.824 95.2141 219.593 93.9808 219.977C92.9941 220.233 92.1308 220.489 91.1441 220.489C90.8974 220.489 90.5274 220.489 90.2807 220.489C89.0474 220.361 87.9374 219.849 86.8274 219.081C85.7174 218.312 84.9774 216.904 84.484 214.983C83.9907 213.062 83.744 210.629 83.744 207.684C83.744 207.3 83.744 207.043 83.744 206.659C83.744 204.098 83.9907 202.049 84.3607 200.385C84.7307 198.464 85.4707 196.927 86.4574 195.775C87.444 194.622 88.5541 193.854 89.6641 193.598C90.2807 193.47 90.8974 193.342 91.5141 193.342C92.0074 193.342 92.5008 193.342 93.1174 193.47C94.2274 193.726 95.3375 194.494 96.4475 195.647C97.4341 196.927 98.0508 199.104 98.2975 202.306L94.3508 203.33C94.3508 201.921 94.1041 200.769 93.9808 199.873C93.7341 198.976 93.3641 198.336 92.7474 198.08C92.3774 197.952 92.0074 197.824 91.6374 197.824C91.3908 197.824 91.0208 197.824 90.6507 197.952C89.9107 198.208 89.2941 198.72 88.9241 199.616C88.4307 200.513 88.1841 202.946 88.0607 206.787C88.5541 205.763 89.9107 205.123 91.7608 205.123ZM88.5541 214.343C88.8007 215.111 89.4174 215.751 90.4041 216.135C90.7741 216.263 91.1441 216.391 91.5141 216.391C92.0074 216.391 92.3774 216.263 92.7474 216.007C93.3641 215.495 93.8574 214.983 93.9808 214.214C94.2274 213.574 94.2274 212.678 94.2274 211.653C94.2274 210.629 93.7341 209.733 92.6241 209.092C92.2541 208.836 91.8841 208.708 91.3908 208.708C90.4041 208.708 89.4174 209.22 88.0607 210.117C88.0607 212.038 88.1841 213.446 88.5541 214.343Z" fill="white"/>
<path d="M115.934 128.419L113.961 134.437C105.204 141.736 98.5442 151.084 93.8575 162.737L88.8008 160.56C94.2275 148.011 100.518 138.663 107.794 132.516L94.2275 127.65L96.4475 120.735L115.934 128.419Z" fill="white"/>
<path d="M178.218 30.3298C181.425 33.6592 183.152 36.6044 183.398 39.4216C183.645 42.2388 183.398 44.7999 182.782 47.2329V47.489C182.165 49.7939 181.055 51.8428 179.575 53.7636C178.095 55.6844 176.368 57.093 174.395 57.9893C172.421 58.8857 170.078 59.2699 167.611 59.1418C165.638 59.0138 163.665 58.7577 161.815 58.1174C161.321 57.9893 160.705 57.7332 160.211 57.4771C157.868 56.5808 156.265 55.6844 155.401 54.9161C154.538 54.1477 153.675 53.1233 152.935 51.9708C152.195 50.6903 151.578 49.2817 151.085 47.7451C150.715 46.2084 150.468 44.6718 150.591 43.2632C150.715 41.8546 150.961 40.0619 151.455 37.7569C151.578 37.3728 151.578 37.1167 151.701 36.7325C152.318 34.8117 153.305 32.8909 154.785 30.842C156.511 28.5371 158.855 26.8724 162.061 25.976C159.841 23.543 158.608 21.238 158.361 19.3172C158.238 17.2684 158.361 15.2195 158.855 13.0426C158.978 12.6585 158.978 12.4024 159.101 12.0182C159.595 10.0974 160.581 8.30466 161.815 6.51192C163.295 4.33501 165.145 2.79837 167.118 1.77394C169.091 0.749516 171.681 0.493409 174.765 0.877569C175.998 1.00562 177.232 1.26173 178.465 1.64589C180.068 2.1581 181.672 2.79837 183.028 3.69474C185.372 5.23138 187.098 7.02413 188.208 9.20103C189.195 11.3779 189.688 13.5548 189.442 15.9879C189.318 17.3964 189.072 18.9331 188.702 20.2136C188.455 21.11 188.085 22.1344 187.715 23.0308C186.728 25.2077 185.372 26.8724 183.768 28.0249C182.042 29.4335 180.315 30.0737 178.218 30.3298ZM169.461 32.2506C165.885 32.5067 163.541 33.4031 162.308 34.8117C161.075 36.2203 160.335 37.5008 159.965 38.7813V38.9094C159.595 40.1899 159.595 41.5985 160.088 43.3913C160.458 45.184 161.198 46.4646 162.185 47.2329C162.801 47.8731 163.665 48.2573 164.651 48.5134C165.145 48.6415 165.515 48.7695 166.008 48.7695C167.611 49.0256 168.968 49.0256 170.201 48.6415C171.311 48.2573 172.421 47.489 173.285 46.4645C173.778 45.8243 174.272 45.056 174.518 44.1596C174.765 43.5193 174.888 42.751 174.888 41.8546C175.012 39.8058 174.765 38.2691 174.148 36.9886C173.531 35.8361 172.051 34.1714 169.461 32.2506ZM175.382 23.1588C176.615 22.7747 177.602 22.1344 178.218 21.3661C178.712 20.7258 179.205 19.8295 179.452 18.805C179.575 18.5489 179.575 18.2928 179.698 17.9087C179.945 16.5001 180.068 15.2195 179.822 14.1951C179.575 13.1707 179.082 12.2743 178.342 11.634C177.725 11.1218 176.985 10.7377 176.122 10.4816C175.875 10.3535 175.752 10.3535 175.505 10.3535C174.272 10.0974 173.161 9.96935 172.051 10.0974C170.941 10.2255 170.078 10.7377 169.338 11.634C168.598 12.5304 167.981 13.6829 167.611 14.9634C167.241 16.244 167.118 17.6526 167.365 19.0611C167.611 20.4697 168.845 22.0064 171.311 23.7991C172.668 23.6711 174.148 23.543 175.382 23.1588Z" fill="white"/>
<path d="M139.861 96.1493C139.738 96.1493 139.615 96.1493 139.615 96.1493C137.888 96.1493 136.408 95.637 135.298 94.7407C134.065 93.7162 133.448 92.1796 133.201 90.2588C133.078 89.3624 133.078 88.5941 133.078 87.8258C133.078 86.9294 133.201 86.1611 133.325 85.5208C133.571 84.3683 134.065 83.2159 134.681 82.1914C135.298 81.039 136.285 80.3987 137.641 79.8865C138.628 79.6304 139.615 79.3743 140.601 79.3743C140.971 79.3743 141.218 79.3743 141.588 79.3743C142.821 79.5023 144.055 80.0145 145.165 80.7829C146.275 81.5512 147.138 82.9598 147.631 85.0086C148.125 87.0575 148.371 89.6185 148.371 92.5638V93.5882C148.371 96.1493 148.125 98.3262 147.755 100.119C147.261 102.168 146.521 103.704 145.535 104.985C144.425 106.265 143.315 107.034 142.205 107.29C141.588 107.418 140.848 107.546 140.231 107.546C139.738 107.546 139.121 107.546 138.628 107.418C137.395 107.162 136.285 106.394 135.175 105.113C134.065 103.832 133.448 101.784 133.325 99.0945L137.518 98.0701C137.518 99.6067 137.765 100.631 137.888 101.271C138.135 101.912 138.505 102.296 139.245 102.552C139.615 102.68 139.985 102.808 140.355 102.808C140.725 102.808 140.971 102.808 141.341 102.68C142.081 102.424 142.698 102.04 143.191 101.399C143.685 100.759 143.931 98.4542 144.055 94.3565C143.068 95.509 141.711 96.0212 139.861 96.1493ZM143.191 85.6489C142.821 84.7525 142.205 84.2403 141.341 83.8561C140.971 83.7281 140.601 83.6 140.231 83.6C139.738 83.6 139.368 83.7281 138.998 83.9842C138.381 84.4964 137.888 85.1367 137.641 85.7769C137.395 86.5453 137.395 87.5697 137.395 88.9783C137.395 90.3869 138.011 91.4113 139.121 92.1796C139.491 92.4357 139.861 92.5638 140.355 92.5638C141.341 92.5638 142.451 92.0515 143.808 91.0271C143.685 88.2099 143.438 86.4172 143.191 85.6489Z" fill="white"/>
</g>
<defs>
<linearGradient id="paint0_linear_39_15311" x1="260.553" y1="107.533" x2="345.306" y2="304.528" gradientUnits="userSpaceOnUse">
<stop offset="0.547699" stop-color="#7A90E6"/>
<stop offset="1" stop-color="#7A90E6"/>
</linearGradient>
<clipPath id="clip0_39_15311">
<rect width="361" height="352" fill="white"/>
</clipPath>
</defs>
</svg>
