<svg width="101" height="101" viewBox="0 0 101 101" fill="none" xmlns="http://www.w3.org/2000/svg">
<path d="M4.51762 47.2942C0.386389 50.0219 -0.705277 55.3566 1.85437 59.5328C4.58203 63.664 9.91672 64.7557 14.093 62.196L76.2415 21.9532C80.0367 19.3156 81.1734 14.1489 78.8268 10.0956C76.2671 5.9194 70.8424 4.4917 66.6661 7.05135C66.4981 7.09637 4.51762 47.2942 4.51762 47.2942Z" fill="#475DB3"/>
<path d="M24.7456 78.43C20.6144 81.1577 19.5227 86.4924 22.0824 90.6686C24.81 94.7998 30.1447 95.8915 34.321 93.3318L96.4695 53.089C100.265 50.4514 101.401 45.2847 99.0548 41.2314C96.4951 37.0552 91.0704 35.6275 86.8941 38.1872C86.7261 38.2322 24.7456 78.43 24.7456 78.43Z" fill="#475DB3"/>
<path d="M53.3742 4.48997C50.6465 0.358742 45.3118 -0.732926 41.1355 1.82672C37.0043 4.55438 35.9127 9.88907 38.4723 14.0653L78.8382 76.0008C81.4758 79.796 86.6424 80.9327 90.6507 78.4181C94.8269 75.8584 96.2546 70.4337 93.695 66.2574C93.4819 66.1344 53.3742 4.48997 53.3742 4.48997Z" fill="#5974E0"/>
<path d="M22.0707 24.7627C19.343 20.6315 14.0083 19.5398 9.83208 22.0995C5.70085 24.8271 4.60918 30.1618 7.16883 34.3381L47.5347 96.2736C50.1723 100.069 55.339 101.205 59.3472 98.6908C63.5235 96.1312 64.9512 90.7064 62.3915 86.5302C62.1785 86.4072 22.0707 24.7627 22.0707 24.7627Z" fill="#5974E0"/>
</svg>
