<svg width="20" height="20" viewBox="0 0 20 20" fill="none" xmlns="http://www.w3.org/2000/svg">
<path fill-rule="evenodd" clip-rule="evenodd" d="M6.29468 2.61539C6.29468 1.12893 7.559 0 9.02196 0H10.98C12.443 0 13.7073 1.12893 13.7073 2.61538C13.7073 3.19857 14.3313 3.56934 14.8435 3.29051L14.9476 3.23386C16.2264 2.53774 17.8812 2.93446 18.6461 4.18351L19.6251 5.78233C20.4076 7.06025 19.923 8.67235 18.6202 9.38154C18.1302 9.64827 18.1302 10.3517 18.6202 10.6185C19.923 11.3276 20.4076 12.9398 19.6251 14.2177L18.6461 15.8165C17.8812 17.0655 16.2264 17.4623 14.9476 16.7661L14.8435 16.7095C14.3313 16.4307 13.7073 16.8014 13.7073 17.3846C13.7073 18.8711 12.443 20 10.98 20H9.02196C7.559 20 6.29468 18.8711 6.29468 17.3846C6.29468 16.8014 5.67071 16.4307 5.15851 16.7095L4.79073 16.0339L5.1585 16.7095L5.05442 16.7662L4.68664 16.0905L5.05442 16.7662C3.77562 17.4623 2.12074 17.0656 1.35589 15.8165L0.376864 14.2177C-0.405661 12.9398 0.0789987 11.3277 1.38179 10.6185C1.8718 10.3517 1.8718 9.64826 1.3818 9.38153C0.0790004 8.67234 -0.40566 7.06023 0.376866 5.78231L1.35589 4.1835C2.12074 2.93445 3.77562 2.53772 5.05442 3.23385L5.15851 3.29051C5.67071 3.56933 6.29468 3.19856 6.29468 2.61539ZM9.02196 1.53846C8.32213 1.53846 7.83315 2.06264 7.83315 2.61539C7.83315 4.36577 5.96032 5.47861 4.42296 4.64174L4.31887 4.58508C3.72463 4.2616 2.98446 4.46995 2.66791 4.9869L1.68889 6.58572C1.39001 7.0738 1.5471 7.71988 2.11735 8.03029C3.6779 8.87979 3.67789 11.1202 2.11735 11.9697C1.5471 12.2801 1.39001 12.9262 1.68889 13.4143L2.66791 15.0131C2.98446 15.5301 3.72463 15.7384 4.31887 15.4149L4.67102 16.0618L4.31887 15.4149L4.42296 15.3583C5.96032 14.5214 7.83315 15.6342 7.83315 17.3846C7.83315 17.9374 8.32213 18.4615 9.02196 18.4615H10.98C11.6799 18.4615 12.1688 17.9374 12.1688 17.3846C12.1688 15.6342 14.0417 14.5214 15.579 15.3583L15.6831 15.4149C16.2774 15.7384 17.0175 15.53 17.3341 15.0131L18.3131 13.4143C18.612 12.9262 18.4549 12.2801 17.8846 11.9697C16.3241 11.1202 16.3241 8.8798 17.8846 8.03031C18.4549 7.71989 18.612 7.07382 18.3131 6.58573L17.3341 4.98692C17.0175 4.46996 16.2774 4.26161 15.6831 4.58509L15.579 4.64175C14.0417 5.47862 12.1688 4.36578 12.1688 2.61538C12.1688 2.06264 11.6799 1.53846 10.98 1.53846H9.02196ZM10.001 7.69231C8.72649 7.69231 7.6933 8.7255 7.6933 10C7.6933 11.2745 8.72649 12.3077 10.001 12.3077C11.2755 12.3077 12.3087 11.2745 12.3087 10C12.3087 8.7255 11.2755 7.69231 10.001 7.69231ZM6.15484 10C6.15484 7.87583 7.87683 6.15385 10.001 6.15385C12.1252 6.15385 13.8472 7.87583 13.8472 10C13.8472 12.1242 12.1252 13.8462 10.001 13.8462C7.87683 13.8462 6.15484 12.1242 6.15484 10Z" fill="white"/>
</svg>
