<svg width="35" height="50" viewBox="0 0 35 50" fill="none" xmlns="http://www.w3.org/2000/svg">
<path d="M17.2502 13.5654C19.1308 13.5654 20.9506 12.7458 22.1985 11.3392C23.4585 9.9193 24.0498 7.99146 23.8103 6.10875C23.5755 4.26219 22.5417 2.57158 21.0127 1.51182C19.4463 0.426044 17.4419 0.0710841 15.5964 0.546175C13.8046 1.00737 12.2589 2.23459 11.396 3.87035C10.5058 5.55834 10.3948 7.60266 11.0953 9.37788C11.773 11.0953 13.1757 12.4806 14.9017 13.1363C15.6521 13.4204 16.4479 13.5658 17.2502 13.5654Z" fill="white"/>
<path d="M33.6569 0.351857C32.7645 -0.268122 31.5388 -0.0472906 30.9187 0.84502C30.9187 0.84502 24.7766 10.2096 22.6703 12.7174C21.0985 14.5886 19.6013 15.1111 17.3449 14.7992C16.2306 14.6451 2.42457 11.2127 2.42457 11.2127C1.45579 10.9787 0.438756 11.5346 0.108553 12.4739C-0.210264 13.3806 0.194316 14.4166 1.04516 14.865C1.12274 14.9058 1.20293 14.9415 1.28521 14.9718L16.26 20.4834C16.3452 20.7413 17.0796 22.7279 17.4961 24.8073C17.7612 26.1301 17.8736 27.478 17.95 28.8236C18.0038 29.7671 17.9891 30.7111 17.9783 31.6554C17.9671 32.6287 18.1267 33.581 18.5124 34.4783C18.4794 35.7075 18.4158 36.9364 18.3113 38.1617C18.1969 39.5024 17.9867 40.835 17.7677 42.1635C17.4909 43.8421 17.0569 44.4874 17.0278 44.5312C16.4904 44.7344 15.84 44.6648 15.2837 44.5917C14.619 44.5045 13.9641 44.3475 13.3213 44.1593C12.7565 43.9929 12.1989 43.8032 11.6499 43.5906C11.2132 43.4222 10.7883 43.23 10.3579 43.0473C10.1576 42.9623 9.95865 42.8682 9.73834 42.8205C9.51175 42.7714 9.27923 42.7555 9.04806 42.7732C8.58879 42.8089 8.14916 42.9745 7.78052 43.2508C7.01545 43.8266 6.66153 44.8328 6.895 45.7605C7.06037 46.4171 7.50297 46.9821 8.10111 47.2996C10.0208 48.3494 12.0738 49.2501 14.219 49.7156C15.3805 49.9675 16.5856 50.0917 17.7683 49.9217C18.9971 49.7451 20.1652 49.2298 21.0573 48.3555C21.2704 48.1455 21.4663 47.9188 21.6431 47.6774C21.6403 47.6813 21.6376 47.6852 21.6352 47.6892C21.7321 47.5279 21.8549 47.3796 21.9571 47.2214C22.1308 46.9522 22.292 46.6752 22.4402 46.3912C22.7376 45.8233 22.9919 45.2332 23.218 44.6338C23.6717 43.4305 24.0229 42.1894 24.3243 40.9401C24.5214 40.1196 24.6994 39.2947 24.8582 38.466C25.1916 38.4516 25.5235 38.4123 25.851 38.3484C26.4443 39.561 26.994 40.7957 27.4607 42.063C26.2113 42.5504 25.6 44.0212 26.1312 45.2521C26.4906 46.0856 26.9274 46.8821 27.5406 47.5592C28.2071 48.2952 29.0511 48.8666 30.0146 49.1317C30.5415 49.2769 31.0948 49.3257 31.6357 49.2425C32.7221 49.072 33.6316 48.2263 33.8252 47.0821C34.2435 44.6183 33.8441 42.0998 33.2779 39.6912C32.9711 38.3864 32.5976 37.0969 32.1808 35.8232C31.9079 34.9892 31.6253 34.1542 31.2977 33.3397C31.2328 33.1781 31.1707 33.0152 31.1016 32.8552C31.1824 32.3135 31.1892 31.7703 31.1443 31.2254C31.0994 30.6806 31.0621 30.1344 31.0059 29.5906C30.873 28.3041 30.6936 27.0191 30.4515 25.7484C29.9469 23.102 29.2378 20.487 28.1948 17.9989C27.9115 17.323 27.6072 16.6567 27.268 16.0071L34.2694 2.89456C34.7348 2.02575 34.4854 0.927545 33.6569 0.351857C34.4854 0.927545 32.7645 -0.268122 33.6569 0.351857Z" fill="white"/>
</svg>
