<svg width="845" height="845" viewBox="0 0 845 845" fill="none" xmlns="http://www.w3.org/2000/svg">
<path opacity="0.08" d="M43.1396 1H1V43.1261M43.1396 1V43.1261M43.1396 1H85.2793M1 43.1261H43.1396M1 43.1261V85.2522M43.1396 43.1261V85.2522M43.1396 43.1261H85.2793M85.2793 1V43.1261M85.2793 1H127.419M43.1396 85.2522H1M43.1396 85.2522V127.378M43.1396 85.2522H85.2793M85.2793 43.1261V85.2522M85.2793 43.1261H127.419M1 85.2522V127.378M43.1396 127.378H1M43.1396 127.378V169.504M43.1396 127.378H85.2793M85.2793 85.2522V127.378M85.2793 85.2522H127.419M1 127.378V169.504M43.1396 169.504H1M43.1396 169.504V211.63M43.1396 169.504H85.2793M85.2793 127.378V169.504M85.2793 127.378H127.419M1 169.504V211.63M43.1396 211.63H1M43.1396 211.63V253.757M43.1396 211.63H85.2793M85.2793 169.504V211.63M85.2793 169.504H127.419M1 211.63V253.757M43.1396 253.757H1M43.1396 253.757V295.883M43.1396 253.757H85.2793M85.2793 211.63V253.757M85.2793 211.63H127.419M1 253.757V295.883M43.1396 295.883H1M43.1396 295.883V338.009M43.1396 295.883H85.2793M85.2793 253.757V295.883M85.2793 253.757H127.419M1 295.883V338.009M43.1396 338.009H1M43.1396 338.009V380.135M43.1396 338.009H85.2793M85.2793 295.883V338.009M85.2793 295.883H127.419M1 338.009V380.135M43.1396 380.135H1M43.1396 380.135V422.261M43.1396 380.135H85.2793M85.2793 338.009V380.135M85.2793 338.009H127.419M1 380.135V422.261M43.1396 422.261H1M43.1396 422.261V464.387M43.1396 422.261H85.2793M85.2793 380.135V422.261M85.2793 380.135H127.419M1 422.261V464.387M43.1396 464.387H1M43.1396 464.387V506.513M43.1396 464.387H85.2793M85.2793 422.261V464.387M85.2793 422.261H127.419M1 464.387V506.513M43.1396 506.513H1M43.1396 506.513V548.639M43.1396 506.513H85.2793M85.2793 464.387V506.513M85.2793 464.387H127.419M1 506.513V548.639M43.1396 548.639H1M43.1396 548.639V590.765M43.1396 548.639H85.2793M85.2793 506.513V548.639M85.2793 506.513H127.419M1 548.639V590.765M43.1396 590.765H1M43.1396 590.765V632.891M43.1396 590.765H85.2793M85.2793 548.639V590.765M85.2793 548.639H127.419M1 590.765V632.891M43.1396 632.891H1M43.1396 632.891V675.017M43.1396 632.891H85.2793M85.2793 590.765V632.891M85.2793 590.765H127.419M1 632.891V675.017M43.1396 675.017H1M43.1396 675.017V717.143M43.1396 675.017H85.2793M85.2793 632.891V675.017M85.2793 632.891H127.419M1 675.017V717.143M43.1396 717.143H1M43.1396 717.143V759.269M43.1396 717.143H85.2793M85.2793 675.017V717.143M85.2793 675.017H127.419M1 717.143V759.269M43.1396 759.269H1M43.1396 759.269V801.396M43.1396 759.269H85.2793M85.2793 717.143V759.269M85.2793 717.143H127.419M1 759.269V801.396M43.1396 801.396H1M43.1396 801.396V843.522M43.1396 801.396H85.2793M85.2793 759.269V801.396M85.2793 759.269H127.419M1 801.396V843.522H43.1396M43.1396 843.522H85.2793M85.2793 801.396V843.522M85.2793 801.396H127.419M85.2793 843.522H127.419M127.419 1V43.1261M127.419 1H169.559M127.419 43.1261V85.2522M127.419 43.1261H169.559M127.419 85.2522V127.378M127.419 85.2522H169.559M127.419 127.378V169.504M127.419 127.378H169.559M127.419 169.504V211.63M127.419 169.504H169.559M127.419 211.63V253.757M127.419 211.63H169.559M127.419 253.757V295.883M127.419 253.757H169.559M127.419 295.883V338.009M127.419 295.883H169.559M127.419 338.009V380.135M127.419 338.009H169.559M127.419 380.135V422.261M127.419 380.135H169.559M127.419 422.261V464.387M127.419 422.261H169.559M127.419 464.387V506.513M127.419 464.387H169.559M127.419 506.513V548.639M127.419 506.513H169.559M127.419 548.639V590.765M127.419 548.639H169.559M127.419 590.765V632.891M127.419 590.765H169.559M127.419 632.891V675.017M127.419 632.891H169.559M127.419 675.017V717.143M127.419 675.017H169.559M127.419 717.143V759.269M127.419 717.143H169.559M127.419 759.269V801.396M127.419 759.269H169.559M127.419 801.396V843.522M127.419 801.396H169.559M127.419 843.522H169.559M169.559 1V43.1261M169.559 1H211.698M169.559 43.1261V85.2522M169.559 43.1261H211.698M169.559 85.2522V127.378M169.559 85.2522H211.698M169.559 127.378V169.504M169.559 127.378H211.698M169.559 169.504V211.63M169.559 169.504H211.698M169.559 211.63V253.757M169.559 211.63H211.698M169.559 253.757V295.883M169.559 253.757H211.698M169.559 295.883V338.009M169.559 295.883H211.698M169.559 338.009V380.135M169.559 338.009H211.698M169.559 380.135V422.261M169.559 380.135H211.698M169.559 422.261V464.387M169.559 422.261H211.698M169.559 464.387V506.513M169.559 464.387H211.698M169.559 506.513V548.639M169.559 506.513H211.698M169.559 548.639V590.765M169.559 548.639H211.698M169.559 590.765V632.891M169.559 590.765H211.698M169.559 632.891V675.017M169.559 632.891H211.698M169.559 675.017V717.143M169.559 675.017H211.698M169.559 717.143V759.269M169.559 717.143H211.698M169.559 759.269V801.396M169.559 759.269H211.698M169.559 801.396V843.522M169.559 801.396H211.698M169.559 843.522H211.698M211.698 1V43.1261M211.698 1H253.838M211.698 43.1261V85.2522M211.698 43.1261H253.838M211.698 85.2522V127.378M211.698 85.2522H253.838M211.698 127.378V169.504M211.698 127.378H253.838M211.698 169.504V211.63M211.698 169.504H253.838M211.698 211.63V253.757M211.698 211.63H253.838M211.698 253.757V295.883M211.698 253.757H253.838M211.698 295.883V338.009M211.698 295.883H253.838M211.698 338.009V380.135M211.698 338.009H253.838M211.698 380.135V422.261M211.698 380.135H253.838M211.698 422.261V464.387M211.698 422.261H253.838M211.698 464.387V506.513M211.698 464.387H253.838M211.698 506.513V548.639M211.698 506.513H253.838M211.698 548.639V590.765M211.698 548.639H253.838M211.698 590.765V632.891M211.698 590.765H253.838M211.698 632.891V675.017M211.698 632.891H253.838M211.698 675.017V717.143M211.698 675.017H253.838M211.698 717.143V759.269M211.698 717.143H253.838M211.698 759.269V801.396M211.698 759.269H253.838M211.698 801.396V843.522M211.698 801.396H253.838M211.698 843.522H253.838M253.838 1V43.1261M253.838 1H295.977M253.838 43.1261V85.2522M253.838 43.1261H295.977M253.838 85.2522V127.378M253.838 85.2522H295.977M253.838 127.378V169.504M253.838 127.378H295.977M253.838 169.504V211.63M253.838 169.504H295.977M253.838 211.63V253.757M253.838 211.63H295.977M253.838 253.757V295.883M253.838 253.757H295.977M253.838 295.883V338.009M253.838 295.883H295.977M253.838 338.009V380.135M253.838 338.009H295.977M253.838 380.135V422.261M253.838 380.135H295.977M253.838 422.261V464.387M253.838 422.261H295.977M253.838 464.387V506.513M253.838 464.387H295.977M253.838 506.513V548.639M253.838 506.513H295.977M253.838 548.639V590.765M253.838 548.639H295.977M253.838 590.765V632.891M253.838 590.765H295.977M253.838 632.891V675.017M253.838 632.891H295.977M253.838 675.017V717.143M253.838 675.017H295.977M253.838 717.143V759.269M253.838 717.143H295.977M253.838 759.269V801.396M253.838 759.269H295.977M253.838 801.396V843.522M253.838 801.396H295.977M253.838 843.522H295.977M295.977 1V43.1261M295.977 1H338.117M295.977 43.1261V85.2522M295.977 43.1261H338.117M295.977 85.2522V127.378M295.977 85.2522H338.117M295.977 127.378V169.504M295.977 127.378H338.117M295.977 169.504V211.63M295.977 169.504H338.117M295.977 211.63V253.757M295.977 211.63H338.117M295.977 253.757V295.883M295.977 253.757H338.117M295.977 295.883H338.117M295.977 295.883V338.009M295.977 338.009V380.135M295.977 338.009H338.117M295.977 380.135V422.261M295.977 380.135H338.117M295.977 422.261V464.387M295.977 422.261H338.117M295.977 464.387V506.513M295.977 464.387H338.117M295.977 506.513V548.639M295.977 506.513H338.117M295.977 548.639V590.765M295.977 548.639H338.117M295.977 590.765V632.891M295.977 590.765H338.117M295.977 632.891V675.017M295.977 632.891H338.117M295.977 675.017V717.143M295.977 675.017H338.117M295.977 717.143V759.269M295.977 717.143H338.117M295.977 759.269V801.396M295.977 759.269H338.117M295.977 801.396V843.522M295.977 801.396H338.117M295.977 843.522H338.117M338.117 1V43.1261M338.117 1H380.257M338.117 43.1261V85.2522M338.117 43.1261H380.257M338.117 85.2522V127.378M338.117 85.2522H380.257M338.117 127.378V169.504M338.117 127.378H380.257M338.117 169.504V211.63M338.117 169.504H380.257M338.117 211.63V253.757M338.117 211.63H380.257M338.117 253.757V295.883M338.117 253.757H380.257M338.117 295.883V338.009M338.117 295.883H380.257M338.117 338.009V380.135M338.117 338.009H380.257M338.117 380.135V422.261M338.117 380.135H380.257M338.117 422.261V464.387M338.117 422.261H380.257M338.117 464.387V506.513M338.117 464.387H380.257M338.117 506.513V548.639M338.117 506.513H380.257M338.117 548.639V590.765M338.117 548.639C338.117 548.639 363.8 548.639 380.257 548.639M338.117 590.765V632.891M338.117 590.765H380.257M338.117 632.891V675.017M338.117 632.891H380.257M338.117 675.017V717.143M338.117 675.017H380.257M338.117 717.143V759.269M338.117 717.143H380.257M338.117 759.269V801.396M338.117 759.269H380.257M338.117 801.396V843.522M338.117 801.396H380.257M338.117 843.522H380.257M380.257 1V43.1261M380.257 1H422.396M380.257 43.1261V85.2522M380.257 43.1261H422.396M380.257 85.2522V127.378M380.257 85.2522H422.396M380.257 127.378V169.504M380.257 127.378H422.396M380.257 169.504V211.63M380.257 169.504H422.396M380.257 211.63V253.757M380.257 211.63H422.396M380.257 253.757V295.883M380.257 253.757H422.396M380.257 295.883V338.009M380.257 295.883H422.396M380.257 338.009V380.135M380.257 338.009H422.396M380.257 380.135V422.261M380.257 380.135H422.396M380.257 422.261V464.387M380.257 422.261H422.396M380.257 464.387V506.513M380.257 464.387H422.396M380.257 506.513C380.257 506.513 380.257 532.188 380.257 548.639M380.257 506.513H422.396M380.257 548.639C380.257 565.09 380.257 590.765 380.257 590.765M380.257 548.639C396.713 548.639 422.396 548.639 422.396 548.639M380.257 590.765V632.891M380.257 590.765H422.396M380.257 632.891V675.017M380.257 632.891H422.396M380.257 675.017V717.143M380.257 675.017H422.396M380.257 717.143V759.269M380.257 717.143H422.396M380.257 759.269V801.396M380.257 759.269H422.396M380.257 801.396V843.522M380.257 801.396H422.396M380.257 843.522H422.396M422.396 1V43.1261M422.396 1H464.536M422.396 43.1261V85.2522M422.396 43.1261H464.536M422.396 85.2522V127.378M422.396 85.2522H464.536M422.396 127.378V169.504M422.396 127.378H464.536M422.396 169.504V211.63M422.396 169.504H464.536M422.396 211.63V253.757M422.396 211.63H464.536M422.396 253.757V295.883M422.396 253.757H464.536M422.396 295.883V338.009M422.396 295.883H464.536M422.396 338.009V380.135M422.396 338.009H464.536M422.396 380.135V422.261M422.396 380.135H464.536M422.396 422.261V464.387M422.396 422.261H464.536M422.396 464.387V506.513M422.396 464.387H464.536M422.396 506.513V548.639M422.396 506.513H464.536M422.396 548.639V590.765M422.396 548.639H464.536M422.396 590.765V632.891M422.396 590.765H464.536M422.396 632.891V675.017M422.396 632.891H464.536M422.396 675.017V717.143M422.396 675.017H464.536M422.396 717.143V759.269M422.396 717.143H464.536M422.396 759.269V801.396M422.396 759.269H464.536M422.396 801.396V843.522M422.396 801.396H464.536M422.396 843.522H464.536M464.536 1V43.1261M464.536 1H506.676M464.536 43.1261V85.2522M464.536 43.1261H506.676M464.536 85.2522V127.378M464.536 85.2522H506.676M464.536 127.378V169.504M464.536 127.378H506.676M464.536 169.504V211.63M464.536 169.504L843.793 169.504V211.63L464.536 211.63M464.536 211.63V253.757M464.536 253.757V295.883M464.536 253.757H506.676M464.536 295.883V338.009M464.536 295.883H506.676M464.536 338.009V380.135M464.536 338.009H506.676M464.536 380.135V422.261M464.536 380.135H506.676M464.536 422.261V464.387M464.536 422.261H506.676M464.536 464.387V506.513M464.536 464.387H506.676M464.536 506.513V548.639M464.536 506.513H506.676M464.536 548.639V590.765M464.536 548.639H506.676M464.536 590.765V632.891M464.536 590.765H506.676M464.536 632.891V675.017M464.536 632.891H506.676M464.536 675.017V717.143M464.536 675.017H506.676M464.536 717.143V759.269M464.536 717.143H506.676M464.536 759.269V801.396M464.536 759.269H506.676M464.536 801.396V843.522M464.536 801.396H506.676M464.536 843.522H506.676M506.676 1V43.1261M506.676 1H548.815M506.676 43.1261V85.2522M506.676 43.1261H548.815M506.676 85.2522V127.378M506.676 85.2522H548.815M506.676 127.378H548.815M506.676 127.378V253.757M506.676 253.757V295.883M506.676 253.757H548.815M506.676 295.883V338.009M506.676 295.883H548.815M506.676 338.009V380.135M506.676 338.009H548.815M506.676 380.135V422.261M506.676 380.135H548.815M506.676 422.261V464.387M506.676 422.261H548.815M506.676 464.387V506.513M506.676 464.387H548.815M506.676 506.513V548.639M506.676 506.513H548.815M506.676 548.639V590.765M506.676 548.639H548.815M506.676 590.765V632.891M506.676 590.765H548.815M506.676 632.891V675.017M506.676 632.891H548.815M506.676 675.017V717.143M506.676 675.017H548.815M506.676 717.143V759.269M506.676 717.143H548.815M506.676 759.269V801.396M506.676 759.269H548.815M506.676 801.396V843.522M506.676 801.396H548.815M506.676 843.522H548.815M548.815 1V43.1261M548.815 1H590.955M548.815 43.1261V85.2522M548.815 43.1261H590.955M548.815 85.2522V127.378M548.815 85.2522H590.955M548.815 127.378H590.955M548.815 127.378V253.757M548.815 253.757V295.883M548.815 253.757H590.955M548.815 295.883V338.009M548.815 295.883H590.955M548.815 338.009V380.135M548.815 338.009H590.955M548.815 380.135V422.261M548.815 380.135H590.955M548.815 422.261V464.387M548.815 422.261H590.955M548.815 464.387V506.513M548.815 464.387H590.955M548.815 506.513V548.639M548.815 506.513H590.955M548.815 548.639V590.765M548.815 548.639H590.955M548.815 590.765V632.891M548.815 590.765H590.955M548.815 632.891V675.017M548.815 632.891H590.955M548.815 675.017V717.143M548.815 675.017H590.955M548.815 717.143V759.269M548.815 717.143H590.955M548.815 759.269V801.396M548.815 759.269H590.955M548.815 801.396V843.522M548.815 801.396H590.955M548.815 843.522H590.955M590.955 1V43.1261M590.955 1H633.095M590.955 43.1261V85.2522M590.955 43.1261H633.095M590.955 85.2522V127.378M590.955 85.2522H633.095M590.955 127.378H633.095M590.955 127.378V253.757M590.955 253.757V295.883M590.955 253.757L843.793 253.756V295.883L590.955 295.883M590.955 295.883V338.009M590.955 338.009V380.135M590.955 338.009H633.095M590.955 380.135V422.261M590.955 380.135H633.095M590.955 422.261V464.387M590.955 422.261H633.095M590.955 464.387V506.513M590.955 464.387H633.095M590.955 506.513V548.639M590.955 506.513H633.095M590.955 548.639V590.765M590.955 548.639H633.095M590.955 590.765V632.891M590.955 590.765H633.095M590.955 632.891V675.017M590.955 632.891H633.095M590.955 675.017V717.143M590.955 675.017H633.095M590.955 717.143V759.269M590.955 717.143H633.095M590.955 759.269V801.396M590.955 759.269H633.095M590.955 801.396V843.522M590.955 801.396H633.095M590.955 843.522H633.095M633.095 1V43.1261M633.095 1H675.234M633.095 43.1261V85.2522M633.095 43.1261H675.234M633.095 85.2522V127.378M633.095 85.2522H675.234M633.095 127.378H675.234M633.095 127.378V338.009M633.095 338.009V380.135M633.095 338.009H675.234M633.095 380.135V422.261M633.095 380.135H675.234M633.095 422.261V464.387M633.095 422.261H675.234M633.095 464.387V506.513M633.095 464.387H675.234M633.095 506.513V548.639M633.095 506.513H675.234M633.095 548.639V590.765M633.095 548.639H675.234M633.095 590.765V632.891M633.095 590.765H675.234M633.095 632.891V675.017M633.095 632.891H675.234M633.095 675.017V717.143M633.095 675.017H675.234M633.095 717.143V759.269M633.095 717.143H675.234M633.095 759.269V801.396M633.095 759.269H675.234M633.095 801.396V843.522M633.095 801.396H675.234M633.095 843.522H675.234M675.234 1V43.1261M675.234 1H717.374M675.234 43.1261V85.2522M675.234 43.1261H717.374M675.234 85.2522V127.378M675.234 85.2522H717.374M675.234 127.378H717.374M675.234 127.378V338.009M675.234 338.009V380.135M675.234 338.009H717.374M675.234 380.135V422.261M675.234 380.135H717.374M675.234 422.261V464.387M675.234 422.261H717.374M675.234 464.387V506.513M675.234 464.387H717.374M675.234 506.513V548.639M675.234 506.513H717.374M675.234 548.639V590.765M675.234 548.639H717.374M675.234 590.765V632.891M675.234 590.765H717.374M675.234 632.891V675.017M675.234 632.891H717.374M675.234 675.017V717.143M675.234 675.017H717.374M675.234 717.143V759.269M675.234 717.143H717.374M675.234 759.269V801.396M675.234 759.269H717.374M675.234 801.396V843.522M675.234 801.396H717.374M675.234 843.522H717.374M717.374 1V43.1261M717.374 1H759.513M717.374 43.1261V85.2522M717.374 43.1261H759.513M717.374 85.2522V127.378M717.374 85.2522H759.513M717.374 127.378H759.513M717.374 127.378V338.009M717.374 338.009V380.135M717.374 338.009H759.513M717.374 380.135V422.261M717.374 380.135H759.513M717.374 422.261V464.387M717.374 422.261H759.513M717.374 464.387V506.513M717.374 464.387H759.513M717.374 506.513V548.639M717.374 506.513H759.513M717.374 548.639V590.765M717.374 548.639H759.513M717.374 590.765V632.891M717.374 590.765H759.513M717.374 632.891V675.017M717.374 632.891H759.513M717.374 675.017V717.143M717.374 675.017H759.513M717.374 717.143V759.269M717.374 717.143H759.513M717.374 759.269V801.396M717.374 759.269H759.513M717.374 801.396V843.522M717.374 801.396H759.513M717.374 843.522H759.513M759.513 1V43.1261M759.513 1H801.653M759.513 43.1261V85.2522M759.513 43.1261H801.653M759.513 85.2522V127.378M759.513 85.2522H801.653M759.513 127.378H801.653M759.513 127.378V338.009M759.513 338.009V380.135M759.513 338.009H801.653M759.513 380.135V422.261M759.513 380.135H801.653M759.513 422.261V464.387M759.513 422.261H801.653M759.513 464.387V506.513M759.513 464.387H801.653M759.513 506.513V548.639M759.513 506.513H801.653M759.513 548.639V590.765M759.513 548.639H801.653M759.513 590.765V632.891M759.513 590.765H801.653M759.513 632.891V675.017M759.513 632.891H801.653M759.513 675.017V717.143M759.513 675.017H801.653M759.513 717.143V759.269M759.513 717.143H801.653M759.513 759.269V801.396M759.513 759.269H801.653M759.513 801.396V843.522M759.513 801.396H801.653M759.513 843.522H801.653M801.653 1V43.1261M801.653 1H843.793V43.1261M801.653 43.1261V85.2522M801.653 43.1261H843.793M801.653 85.2522V127.378M801.653 85.2522H843.793M801.653 127.378H843.793M801.653 127.378V338.009M801.653 338.009V380.135M801.653 338.009H843.793M801.653 380.135V422.261M801.653 380.135H843.793M801.653 422.261V464.387M801.653 422.261H843.793M801.653 464.387V506.513M801.653 464.387H843.793M801.653 506.513V548.639M801.653 506.513H843.793M801.653 548.639V590.765M801.653 548.639H843.793M801.653 590.765V632.891M801.653 590.765H843.793M801.653 632.891V675.017M801.653 632.891H843.793M801.653 675.017V717.143M801.653 675.017H843.793M801.653 717.143V759.269M801.653 717.143H843.793M801.653 759.269V801.396M801.653 759.269H843.793M801.653 801.396V843.522M801.653 801.396H843.793M801.653 843.522H843.793V801.396M843.793 43.1261V85.2522M843.793 85.2522V127.378M843.793 127.378V338.009M843.793 338.009V380.135M843.793 380.135V422.261M843.793 422.261V464.387M843.793 464.387V506.513M843.793 506.513V548.639M843.793 548.639V590.765M843.793 590.765V632.891M843.793 632.891V675.017M843.793 675.017V717.143M843.793 717.143V759.269M843.793 759.269V801.396" stroke="url(#paint0_linear_29_975)" stroke-width="0.861352"/>
<path d="M255.14 296H213V338.126H255.14V296Z" fill="white" fill-opacity="0.02"/>
<path d="M255.14 633H213V675.126H255.14V633Z" fill="white" fill-opacity="0.02"/>
<path d="M255.14 802H213V844.126H255.14V802Z" fill="white" fill-opacity="0.02"/>
<path d="M423.14 296H381V338.126H423.14V296Z" fill="white" fill-opacity="0.02"/>
<path d="M423.14 633H381V675.126H423.14V633Z" fill="white" fill-opacity="0.02"/>
<path d="M423.14 802H381V844.126H423.14V802Z" fill="white" fill-opacity="0.02"/>
<path d="M170.14 212H128V254.126H170.14V212Z" fill="white" fill-opacity="0.02"/>
<path d="M170.14 549H128V591.126H170.14V549Z" fill="white" fill-opacity="0.02"/>
<path d="M170.14 718H128V760.126H170.14V718Z" fill="white" fill-opacity="0.02"/>
<path d="M339.14 212H297V254.126H339.14V212Z" fill="white" fill-opacity="0.02"/>
<path d="M339.14 549H297V591.126H339.14V549Z" fill="white" fill-opacity="0.02"/>
<path d="M339.14 718H297V760.126H339.14V718Z" fill="white" fill-opacity="0.02"/>
<path d="M86.1396 296H44V338.126H86.1396V296Z" fill="white" fill-opacity="0.02"/>
<path d="M86.1396 633H44V675.126H86.1396V633Z" fill="white" fill-opacity="0.02"/>
<path d="M86.1396 802H44V844.126H86.1396V802Z" fill="white" fill-opacity="0.02"/>
<path d="M44.2661 127.804H86.4058V169.93H44.2661V127.804Z" fill="white" fill-opacity="0.02"/>
<path d="M44.2661 464.804H86.4058V506.93H44.2661V464.804Z" fill="white" fill-opacity="0.02"/>
<path d="M128 43H170.14V85.1261H128V43Z" fill="white" fill-opacity="0.02"/>
<path d="M128 380H170.14V422.126H128V380Z" fill="white" fill-opacity="0.02"/>
<path d="M297 43H339.14V85.1261H297V43Z" fill="white" fill-opacity="0.02"/>
<path d="M297 380H339.14V422.126H297V380Z" fill="white" fill-opacity="0.02"/>
<path d="M212 128H254.14V170.126H212V128Z" fill="white" fill-opacity="0.02"/>
<path d="M212 465H254.14V507.126H212V465Z" fill="white" fill-opacity="0.02"/>
<path d="M381 128H423.14V170.126H381V128Z" fill="white" fill-opacity="0.02"/>
<path d="M381 465H423.14V507.126H381V465Z" fill="white" fill-opacity="0.02"/>
<path d="M591.252 296H549.112V338.126H591.252V296Z" fill="white" fill-opacity="0.02"/>
<path d="M591.252 633H549.112V675.126H591.252V633Z" fill="white" fill-opacity="0.02"/>
<path d="M591.252 802H549.112V844.126H591.252V802Z" fill="white" fill-opacity="0.02"/>
<path d="M759.252 296H717.112V338.126H759.252V296Z" fill="white" fill-opacity="0.02"/>
<path d="M759.252 633H717.112V675.126H759.252V633Z" fill="white" fill-opacity="0.02"/>
<path d="M759.252 802H717.112V844.126H759.252V802Z" fill="white" fill-opacity="0.02"/>
<path d="M506.252 212H464.112V254.126H506.252V212Z" fill="white" fill-opacity="0.02"/>
<path d="M506.252 549H464.112V591.126H506.252V549Z" fill="white" fill-opacity="0.02"/>
<path d="M506.252 718H464.112V760.126H506.252V718Z" fill="white" fill-opacity="0.02"/>
<path d="M675.252 212H633.112V254.126H675.252V212Z" fill="white" fill-opacity="0.02"/>
<path d="M675.252 549H633.112V591.126H675.252V549Z" fill="white" fill-opacity="0.02"/>
<path d="M675.252 718H633.112V760.126H675.252V718Z" fill="white" fill-opacity="0.02"/>
<path d="M464.112 43H506.252V85.1261H464.112V43Z" fill="white" fill-opacity="0.02"/>
<path d="M464.112 380H506.252V422.126H464.112V380Z" fill="white" fill-opacity="0.02"/>
<path d="M633.112 43H675.252V85.1261H633.112V43Z" fill="white" fill-opacity="0.02"/>
<path d="M633.112 380H675.252V422.126H633.112V380Z" fill="white" fill-opacity="0.02"/>
<path d="M548.112 128H590.252V170.126H548.112V128Z" fill="white" fill-opacity="0.02"/>
<path d="M548.112 465H590.252V507.126H548.112V465Z" fill="white" fill-opacity="0.02"/>
<path d="M717.112 128H759.252V170.126H717.112V128Z" fill="white" fill-opacity="0.02"/>
<path d="M717.112 465H759.252V507.126H717.112V465Z" fill="white" fill-opacity="0.02"/>
<defs>
<linearGradient id="paint0_linear_29_975" x1="928.072" y1="249.544" x2="928.072" y2="1050.47" gradientUnits="userSpaceOnUse">
<stop stop-color="white" stop-opacity="0.65"/>
<stop offset="1" stop-color="white" stop-opacity="0"/>
</linearGradient>
</defs>
</svg>
