<svg width="20" height="20" viewBox="0 0 20 20" fill="none" xmlns="http://www.w3.org/2000/svg">
<path fill-rule="evenodd" clip-rule="evenodd" d="M5.81123 1.33706C6.16426 1.18268 6.3253 0.771347 6.17092 0.418316C6.01654 0.0652847 5.60521 -0.0957561 5.25218 0.0586215C3.1529 0.976617 1.37165 2.48407 0.116771 4.37142C-0.0965651 4.69228 -0.00939952 5.12534 0.311461 5.33867C0.632321 5.55201 1.06537 5.46484 1.27871 5.14398C2.38683 3.47735 3.95976 2.14669 5.81123 1.33706ZM14.7477 0.0586215C14.3947 -0.0957561 13.9833 0.0652847 13.829 0.418316C13.6746 0.771347 13.8356 1.18268 14.1887 1.33706C16.0401 2.14669 17.613 3.47735 18.7212 5.14398C18.9345 5.46484 19.3676 5.55201 19.6884 5.33867C20.0093 5.12534 20.0964 4.69228 19.8831 4.37142C18.6282 2.48407 16.847 0.976617 14.7477 0.0586215ZM16.9294 16.4151C18.1238 14.9082 18.8371 13.0025 18.8371 10.9303C18.8371 6.0497 14.8806 2.0932 9.99997 2.0932C5.11938 2.0932 1.16288 6.0497 1.16288 10.9303C1.16288 13.0025 1.87611 14.9081 3.07047 16.415L1.086 18.8629C0.843358 19.1623 0.889295 19.6016 1.18861 19.8442C1.48792 20.0869 1.92726 20.041 2.1699 19.7416L4.03053 17.4465C5.603 18.8878 7.69876 19.7674 9.99997 19.7674C12.3011 19.7674 14.3969 18.8878 15.9693 17.4466L17.83 19.7417C18.0726 20.041 18.512 20.0869 18.8113 19.8442C19.1106 19.6016 19.1565 19.1622 18.9139 18.8629L16.9294 16.4151ZM9.99991 5.58152C10.3852 5.58152 10.6976 5.89388 10.6976 6.27919V10.5569L13.1776 12.2102C13.4982 12.424 13.5848 12.8571 13.3711 13.1777C13.1573 13.4983 12.7242 13.585 12.4036 13.3712L9.61292 11.5108C9.41883 11.3814 9.30225 11.1636 9.30225 10.9303V6.27919C9.30225 5.89388 9.6146 5.58152 9.99991 5.58152Z" fill="white"/>
</svg>
