<svg width="18" height="20" viewBox="0 0 18 20" fill="none" xmlns="http://www.w3.org/2000/svg">
<path fill-rule="evenodd" clip-rule="evenodd" d="M4.20089 4.57362C2.63155 6.45461 1.5 8.78841 1.5 10.75C1.5 14.5008 4.34833 17.5864 8 17.9617L8 1.63318C7.59887 1.76244 7.14319 1.98748 6.64971 2.31568C5.82978 2.86098 4.97594 3.64464 4.20089 4.57362ZM5.81905 1.06668C6.76471 0.43775 7.78753 0 8.75 0C9.71248 0 10.7353 0.43775 11.681 1.06668C12.6423 1.70602 13.6009 2.59394 14.4509 3.61267C16.1316 5.62711 17.5 8.29331 17.5 10.75C17.5 15.5825 13.5825 19.5 8.75 19.5C3.91751 19.5 0 15.5825 0 10.75C0 8.29331 1.36845 5.6271 3.04911 3.61267C3.89906 2.59394 4.85772 1.70602 5.81905 1.06668Z" fill="#5974E0"/>
</svg>
