<svg width="60" height="60" viewBox="0 0 60 60" fill="none" xmlns="http://www.w3.org/2000/svg">
<path d="M60 30C60 13.4315 46.5685 -4.47035e-07 30 -4.47035e-07C13.4315 -4.47035e-07 0 13.4315 0 30C0 46.5685 13.4315 60 30 60C46.5685 60 60 46.5685 60 30Z" fill="#F6F6F6"/>
<path fill-rule="evenodd" clip-rule="evenodd" d="M47.7037 54.2219V52.2963C47.7037 45.587 42.2648 40.1481 35.5556 40.1481H24.2963C17.5871 40.1481 12.1482 45.587 12.1482 52.2963V54.1127C17.1365 57.8119 23.3128 60 30 60C36.6213 60 42.7415 57.855 47.7037 54.2219Z" fill="#E0E2E4"/>
<path d="M19.5557 25.9259C19.5557 20.1985 24.1986 15.5555 29.926 15.5555V15.5555C35.6534 15.5555 40.2964 20.1985 40.2964 25.9259V27.8518C40.2964 33.5792 35.6534 38.2222 29.926 38.2222V38.2222C24.1986 38.2222 19.5557 33.5792 19.5557 27.8518V25.9259Z" fill="#E0E2E4"/>
</svg>
