<svg width="200" height="200" viewBox="0 0 200 200" fill="none" xmlns="http://www.w3.org/2000/svg">
<g clip-path="url(#clip0_82_13203)">
<path d="M100 200C155.228 200 200 155.228 200 100C200 44.7715 155.228 0 100 0C44.7715 0 0 44.7715 0 100C0 155.228 44.7715 200 100 200Z" fill="#171717"/>
<path d="M38.69 99.0599C33.18 102.7 31.73 109.81 35.14 115.38C38.78 120.89 45.89 122.34 51.46 118.93L134.32 65.2699C139.38 61.7499 140.9 54.8599 137.77 49.4599C134.36 43.8899 127.12 41.9899 121.56 45.3999C121.34 45.4599 38.7 99.0599 38.7 99.0599H38.69Z" fill="#475DB3"/>
<path d="M65.66 140.57C60.15 144.21 58.7 151.32 62.11 156.89C65.75 162.4 72.86 163.85 78.43 160.44L161.29 106.78C166.35 103.26 167.87 96.3702 164.74 90.9702C161.33 85.4002 154.09 83.5002 148.53 86.9102C148.31 86.9702 65.67 140.57 65.67 140.57H65.66Z" fill="#475DB3"/>
<path d="M103.83 41.99C100.19 36.48 93.08 35.03 87.51 38.44C82 42.08 80.55 49.19 83.96 54.76L137.78 137.34C141.3 142.4 148.19 143.92 153.53 140.56C159.1 137.15 161 129.91 157.59 124.35C157.31 124.19 103.83 41.99 103.83 41.99Z" fill="#5974E0"/>
<path d="M62.09 69.0202C58.45 63.5102 51.34 62.0602 45.77 65.4702C40.26 69.1102 38.81 76.2202 42.22 81.7902L96.04 164.37C99.56 169.43 106.45 170.95 111.79 167.59C117.36 164.18 119.26 156.94 115.85 151.38C115.57 151.22 62.09 69.0202 62.09 69.0202Z" fill="#5974E0"/>
</g>
<defs>
<clipPath id="clip0_82_13203">
<rect width="200" height="200" fill="white"/>
</clipPath>
</defs>
</svg>
