<svg width="18" height="19" viewBox="0 0 18 19" fill="none" xmlns="http://www.w3.org/2000/svg">
<path fill-rule="evenodd" clip-rule="evenodd" d="M12.419 1.42708C13.3218 0.524305 14.7855 0.524305 15.6883 1.42708L17.3229 3.06171C18.2257 3.96449 18.2257 5.42818 17.3229 6.33096L15.8736 7.78028C15.7598 7.72394 15.6401 7.66302 15.516 7.59767C14.6806 7.15786 13.6892 6.54057 12.9493 5.80069C12.2095 5.06082 11.5922 4.06945 11.1524 3.23403C11.087 3.10989 11.0261 2.99018 10.9697 2.87639L12.419 1.42708ZM11.8887 6.86135C12.7642 7.73687 13.8777 8.42594 14.7595 8.89441L9.06004 14.5938C8.70635 14.9475 8.2475 15.1769 7.75234 15.2477L4.31963 15.7381C3.5568 15.847 2.90295 15.1932 3.01193 14.4304L3.50231 10.9977C3.57305 10.5025 3.80248 10.0436 4.15616 9.68996L9.8556 3.99053C10.3241 4.87234 11.0131 5.98582 11.8887 6.86135ZM0.75 17.25C0.335786 17.25 0 17.5858 0 18C0 18.4142 0.335786 18.75 0.75 18.75H17.25C17.6642 18.75 18 18.4142 18 18C18 17.5858 17.6642 17.25 17.25 17.25H0.75Z" fill="#5974E0"/>
</svg>
