<svg width="50" height="50" viewBox="0 0 50 50" fill="none" xmlns="http://www.w3.org/2000/svg">
<g clip-path="url(#clip0_53_1886)">
<path d="M47.1789 37.6684L49.9717 23.46C50.1297 22.6561 49.6062 21.8764 48.8024 21.7183C47.9977 21.5605 47.2188 22.0841 47.0607 22.8878L44.5031 35.8988H40.7311C41.2756 35.7742 41.7745 35.5 42.1716 35.1072C42.4525 34.8291 42.6758 34.4983 42.8284 34.1337C42.9811 33.7691 43.0603 33.3779 43.0614 32.9826L43.0892 22.8042C43.0938 21.1353 41.7346 19.7831 40.0666 19.795L37.3061 19.8147C35.6389 19.8266 34.3007 21.1967 34.3269 22.863L34.3631 25.1606L36.998 22.23L34.2869 27.0892H28.1236C27.1338 27.0892 26.3315 27.8915 26.3315 28.8813C26.3315 29.8712 27.1339 30.6735 28.1236 30.6735H35.3392C35.6582 30.6735 35.9715 30.5883 36.2466 30.4268C36.5217 30.2652 36.7487 30.0331 36.9041 29.7545L39.6914 24.7586C39.2829 26.6807 38.6969 28.5412 38.0204 30.2932C37.7267 31.0539 37.0599 31.6391 36.1417 31.7845L29.5234 31.7651C28.8187 31.76 28.1471 32.1075 27.7404 32.7041C27.5425 32.9943 27.4187 33.3286 27.3798 33.6778C27.341 34.0269 27.3883 34.3803 27.5176 34.7069L32.3992 47.0434C32.8365 48.1486 34.0864 48.6886 35.1902 48.2518C36.2946 47.8148 36.8356 46.5652 36.3986 45.4609L35.777 43.89L37.7146 38.8659H43.3481L46.7786 47.7611C46.9754 48.2715 47.5486 48.5242 48.0571 48.328C48.5667 48.1314 48.8205 47.5589 48.624 47.0494L45.468 38.8658H45.7234C46.0671 38.8658 46.4002 38.7463 46.6657 38.5279C46.9312 38.3095 47.1126 38.0057 47.1789 37.6684ZM34.7033 41.1766L32.6847 36.0751L34.6271 36.0808C34.1676 36.3328 33.8559 36.821 33.8559 37.382C33.8559 38.2013 34.52 38.8654 35.3393 38.8654H35.5946L34.7033 41.1766Z" fill="white"/>
<path d="M36.3535 18.4418C38.5379 18.4418 40.3088 16.671 40.3088 14.4865C40.3088 12.3021 38.5379 10.5312 36.3535 10.5312C34.169 10.5312 32.3982 12.3021 32.3982 14.4865C32.3982 16.671 34.169 18.4418 36.3535 18.4418Z" fill="white"/>
<path d="M14.6608 30.6732H21.8764C22.8662 30.6732 23.6685 29.8709 23.6685 28.8811C23.6685 27.8912 22.8661 27.0892 21.8764 27.0892H15.7132L13.0019 22.2301L15.6367 25.1606L15.6729 22.863C15.6992 21.1959 14.3603 19.8266 12.6937 19.8147L9.93319 19.795C8.26434 19.7831 6.90604 21.1363 6.91063 22.8042L6.93846 32.9826C6.93957 33.3779 7.01875 33.7691 7.17145 34.1337C7.32416 34.4983 7.54738 34.8291 7.82831 35.1072C8.22546 35.5 8.72435 35.7742 9.26884 35.8988H5.49686L2.93923 22.8878C2.78132 22.0838 2.00134 21.5604 1.19753 21.7183C0.393622 21.8764 -0.130012 22.6561 0.0281919 23.46L2.82117 37.6684C2.88746 38.0057 3.06885 38.3095 3.33435 38.5279C3.59984 38.7463 3.93295 38.8657 4.27674 38.8657H4.53201L1.37595 47.0491C1.17946 47.5587 1.43327 48.1311 1.94294 48.3276C2.45173 48.5239 3.02478 48.2708 3.22136 47.7608L6.65184 38.8656H12.2853L14.223 43.8896L13.6015 45.4605C13.1644 46.5649 13.7054 47.8144 14.8099 48.2514C15.9137 48.6883 17.1636 48.1478 17.6008 47.043L22.4824 34.7066C22.6117 34.3799 22.659 34.0266 22.6201 33.6774C22.5813 33.3283 22.4575 32.994 22.2596 32.7037C22.062 32.4146 21.797 32.1781 21.4874 32.0144C21.1778 31.8508 20.8331 31.7651 20.4829 31.7648H20.4766C13.4417 31.7853 13.8856 31.7881 13.8149 31.7769C12.9538 31.64 12.2744 31.0507 11.9794 30.2928L10.3084 24.7582L13.0959 29.7542C13.2513 30.0329 13.4783 30.265 13.7534 30.4265C14.0285 30.5881 14.3418 30.6733 14.6608 30.6732ZM14.6608 38.8657C15.4801 38.8657 16.1442 38.2016 16.1442 37.3822C16.1442 36.8211 15.8325 36.3329 15.373 36.081L17.3154 36.0753L15.2967 41.1769L14.4053 38.8657H14.6608Z" fill="white"/>
<path d="M13.6469 18.4418C15.8314 18.4418 17.6022 16.671 17.6022 14.4865C17.6022 12.3021 15.8314 10.5312 13.6469 10.5312C11.4625 10.5312 9.69165 12.3021 9.69165 14.4865C9.69165 16.671 11.4625 18.4418 13.6469 18.4418Z" fill="white"/>
<path fill-rule="evenodd" clip-rule="evenodd" d="M16.9617 6.69806C16.9617 3.88086 20.1332 1.59717 24.0454 1.59717C27.9577 1.59717 31.1291 3.88086 31.129 6.69806C31.129 9.51515 27.9576 11.7989 24.0452 11.7989C23.2761 11.7989 22.5364 11.7095 21.843 11.5463L19.0593 13.1361C18.9647 13.1901 18.8552 13.2123 18.747 13.1993C18.6388 13.1863 18.5377 13.1388 18.4586 13.0639C18.3794 12.989 18.3265 12.8906 18.3076 12.7833C18.2887 12.676 18.3049 12.5654 18.3537 12.468L19.3356 10.507C17.8795 9.57277 16.9617 8.2129 16.9617 6.69806ZM23.2414 4.21186C23.2414 3.74851 23.581 3.37288 24 3.37288C24.419 3.37288 24.7586 3.74851 24.7586 4.21186C24.7586 4.37991 24.7146 4.53449 24.6388 4.66475C24.5552 4.80844 24.4495 4.95875 24.3219 5.13418L24.2597 5.21942C24.1527 5.36579 24.033 5.52951 23.9239 5.69534C23.6666 6.08638 23.3793 6.61543 23.3793 7.26271V7.64407C23.3793 8.02318 23.6572 8.33051 24 8.33051C24.3428 8.33051 24.6207 8.02318 24.6207 7.64407V7.26271C24.6207 7.06753 24.7076 6.83755 24.9277 6.50307C25.0165 6.36808 25.1125 6.23672 25.2191 6.09081L25.2891 5.99483C25.4177 5.818 25.5602 5.61819 25.6827 5.40764C25.8836 5.06249 26 4.65117 26 4.21186C26 2.99029 25.1046 2 24 2C22.8954 2 22 2.99029 22 4.21186C22 4.59098 22.2779 4.89831 22.6207 4.89831C22.9635 4.89831 23.2414 4.59098 23.2414 4.21186ZM24.6207 9.55085C24.6207 9.17174 24.3428 8.86441 24 8.86441C23.6572 8.86441 23.3793 9.17174 23.3793 9.55085V10.3136C23.3793 10.6927 23.6572 11 24 11C24.3428 11 24.6207 10.6927 24.6207 10.3136V9.55085Z" fill="white"/>
</g>
<defs>
<clipPath id="clip0_53_1886">
<rect width="50" height="50" fill="white"/>
</clipPath>
</defs>
</svg>
