<svg width="50" height="50" viewBox="0 0 50 50" fill="none" xmlns="http://www.w3.org/2000/svg">
<g clip-path="url(#clip0_53_1895)">
<path d="M31.8359 11.7188C28.6051 11.7188 25.9766 9.09023 25.9766 5.85938C25.9766 2.62852 28.6051 0 31.8359 0C35.0668 0 37.6953 2.62852 37.6953 5.85938C37.6953 9.09023 35.0668 11.7188 31.8359 11.7188Z" fill="white"/>
<path d="M46.8903 0.00117188C45.2945 0.0449219 44.043 1.39434 44.043 2.99063V5.85938C44.043 8.55605 41.8568 10.7422 39.1602 10.7422H39.1402C37.5616 13.096 34.8768 14.6484 31.8359 14.6484C29.5413 14.6484 27.4497 13.7642 25.8827 12.3189C23.0054 14.135 21.0938 17.3421 21.0938 20.9961V29.7852C21.0938 31.6729 22.624 33.2031 24.5117 33.2031H25.9766V48.5352C25.9766 49.3441 26.6324 50 27.4414 50H31.1035V34.668C31.1035 33.859 31.7594 33.2031 32.5684 33.2031C33.3773 33.2031 34.0332 33.859 34.0332 34.668V50H37.6953C38.5043 50 39.1602 49.3441 39.1602 48.5352V16.6016C45.0929 16.6016 49.9023 11.7921 49.9023 5.85938V2.92969C49.9023 1.28428 48.5459 -0.0442383 46.8903 0.00117188ZM12.3047 10.7422C9.34307 10.7422 6.93359 8.33271 6.93359 5.37109C6.93359 2.40947 9.34307 0 12.3047 0C15.2663 0 17.6758 2.40947 17.6758 5.37109C17.6758 8.33271 15.2663 10.7422 12.3047 10.7422Z" fill="white"/>
<path d="M18.6261 10.7422C17.1023 12.5328 14.8346 13.6719 12.3047 13.6719C10.1181 13.6719 8.12754 12.8206 6.64336 11.4338C2.81318 12.9201 0.0976562 16.6408 0.0976562 20.9961V29.7852C0.0976562 31.6729 1.62793 33.2031 3.51562 33.2031H4.98047V48.5352C4.98047 49.3441 5.63633 50 6.44531 50H10.1074V34.668C10.1074 33.859 10.7633 33.2031 11.5723 33.2031C12.3813 33.2031 13.0371 33.859 13.0371 34.668V50H16.6992C17.5082 50 18.1641 49.3441 18.1641 48.5352V20.9961C18.1641 16.8587 20.0804 13.161 23.0714 10.7422H18.6261Z" fill="white"/>
</g>
<defs>
<clipPath id="clip0_53_1895">
<rect width="50" height="50" fill="white"/>
</clipPath>
</defs>
</svg>
