<svg width="20" height="20" viewBox="0 0 20 20" fill="none" xmlns="http://www.w3.org/2000/svg">
<path fill-rule="evenodd" clip-rule="evenodd" d="M1.39535 4.4186C1.39535 2.74891 2.74891 1.39535 4.4186 1.39535H10C10.3853 1.39535 10.6977 1.08299 10.6977 0.697674C10.6977 0.312359 10.3853 0 10 0H4.4186C1.97828 0 0 1.97828 0 4.4186V15.5814C0 18.0217 1.97828 20 4.4186 20H15.5814C18.0217 20 20 18.0217 20 15.5814V10C20 9.61469 19.6876 9.30233 19.3023 9.30233C18.917 9.30233 18.6047 9.61469 18.6047 10V15.5814C18.6047 17.2511 17.2511 18.6047 15.5814 18.6047H4.4186C2.74891 18.6047 1.39535 17.2511 1.39535 15.5814V4.4186ZM14.1107 1.32752C14.9505 0.487726 16.3121 0.487726 17.1519 1.32752L18.6725 2.8481C19.5123 3.6879 19.5123 5.04947 18.6725 5.88926L17.3243 7.23747C17.2184 7.18506 17.1071 7.12839 16.9916 7.0676C16.2145 6.65847 15.2923 6.08425 14.604 5.39599C13.9158 4.70774 13.3416 3.78553 12.9324 3.0084C12.8716 2.89292 12.815 2.78156 12.7625 2.67571L14.1107 1.32752ZM13.6174 6.38266C14.4318 7.19709 15.4676 7.83809 16.2879 8.27387L10.9861 13.5757C10.6571 13.9047 10.2302 14.1181 9.76962 14.1839L6.5764 14.6401C5.86679 14.7414 5.25856 14.1332 5.35993 13.4236L5.81611 10.2304C5.88191 9.76977 6.09533 9.34292 6.42434 9.01392L11.7261 3.71212C12.1619 4.53241 12.8029 5.5682 13.6174 6.38266Z" fill="white"/>
</svg>
